<?xml version="1.0" standalone="no"?>
<!DOCTYPE svg PUBLIC "-//W3C//DTD SVG 20010904//EN"
 "http://www.w3.org/TR/2001/REC-SVG-20010904/DTD/svg10.dtd">
<svg version="1.0" xmlns="http://www.w3.org/2000/svg"
 width="50.000000pt" height="50.000000pt" viewBox="0 0 50.000000 50.000000"
 preserveAspectRatio="xMidYMid meet">

<g transform="translate(0.000000,50.000000) scale(0.100000,-0.100000)"
fill="#000000" stroke="none">
<path d="M390 438 c139 -108 114 -326 -45 -399 -94 -43 -226 -9 -286 74 -16
22 -29 35 -29 29 0 -7 17 -31 38 -54 92 -103 242 -112 344 -20 109 98 112 253
7 355 -27 26 -54 47 -60 47 -6 0 8 -15 31 -32z"/>
<path d="M10 195 c0 -5 5 -17 10 -25 5 -8 10 -10 10 -5 0 6 -5 17 -10 25 -5 8
-10 11 -10 5z"/>
</g>
</svg>
