<?xml version="1.0" standalone="no"?>
<!DOCTYPE svg PUBLIC "-//W3C//DTD SVG 20010904//EN"
 "http://www.w3.org/TR/2001/REC-SVG-20010904/DTD/svg10.dtd">
<svg version="1.0" xmlns="http://www.w3.org/2000/svg"
 width="50.000000pt" height="50.000000pt" viewBox="0 0 50.000000 50.000000"
 preserveAspectRatio="xMidYMid meet">

<g transform="translate(0.000000,50.000000) scale(0.100000,-0.100000)"
fill="#000000" stroke="none">
<path d="M180 491 c-116 -38 -175 -119 -175 -241 0 -106 41 -176 130 -223 56
-30 174 -30 230 0 89 47 130 117 130 223 0 106 -42 177 -130 222 -43 22 -144
33 -185 19z m228 -133 c7 -7 12 -19 12 -27 0 -20 -180 -201 -199 -201 -21 0
-121 100 -121 120 0 20 19 40 39 40 8 0 30 -14 48 -32 l33 -32 73 72 c72 72
92 83 115 60z"/>
</g>
</svg>
