<?xml version="1.0" standalone="no"?>
<!DOCTYPE svg PUBLIC "-//W3C//DTD SVG 20010904//EN"
 "http://www.w3.org/TR/2001/REC-SVG-20010904/DTD/svg10.dtd">
<svg version="1.0" xmlns="http://www.w3.org/2000/svg"
 width="83.000000pt" height="83.000000pt" viewBox="0 0 83.000000 83.000000"
 preserveAspectRatio="xMidYMid meet">

<g transform="translate(0.000000,83.000000) scale(0.100000,-0.100000)"
fill="#000000" stroke="none">
<path d="M610 763 c1 -4 20 -22 44 -40 52 -38 108 -120 131 -191 26 -80 18
-210 -19 -282 -36 -72 -114 -151 -185 -186 -74 -36 -203 -45 -283 -19 -112 36
-221 140 -250 237 -6 21 -15 38 -20 38 -13 0 -1 -35 34 -102 77 -146 257 -238
409 -210 181 33 317 169 351 349 21 115 -23 245 -114 337 -53 52 -98 84 -98
69z"/>
</g>
</svg>
