<?xml version="1.0" standalone="no"?>
<!DOCTYPE svg PUBLIC "-//W3C//DTD SVG 20010904//EN"
 "http://www.w3.org/TR/2001/REC-SVG-20010904/DTD/svg10.dtd">
<svg version="1.0" xmlns="http://www.w3.org/2000/svg"
 width="396.000000pt" height="396.000000pt" viewBox="0 0 396.000000 396.000000"
 preserveAspectRatio="xMidYMid meet">

<g transform="translate(0.000000,396.000000) scale(0.100000,-0.100000)"
fill="#000000" stroke="none">
<path d="M1611 3834 c0 -11 3 -14 6 -6 3 7 2 16 -1 19 -3 4 -6 -2 -5 -13z"/>
<path d="M1110 3798 c-24 -55 -52 -154 -54 -188 0 -14 -4 -28 -9 -31 -5 -4
-12 -27 -14 -53 -3 -26 -11 -46 -17 -46 -7 0 -21 -7 -32 -16 -18 -15 -18 -15
3 -5 12 6 32 10 45 10 17 -1 18 -3 6 -6 -10 -2 -18 -11 -18 -19 0 -15 6 -18
51 -28 24 -5 25 -8 18 -53 -8 -56 -18 -103 -24 -121 -3 -7 0 -10 5 -7 6 3 7
-1 4 -9 -3 -9 -11 -13 -17 -9 -6 3 -7 1 -3 -6 5 -7 -4 -27 -19 -46 -20 -27
-33 -35 -58 -35 l-31 0 24 -17 c14 -10 37 -18 53 -19 15 -1 39 -2 53 -3 17 -1
23 -5 18 -13 -5 -9 -2 -8 9 1 10 8 20 11 24 7 8 -8 -27 -47 -38 -41 -4 3 -11
0 -15 -6 -4 -8 -3 -9 4 -5 22 13 12 -5 -19 -37 l-31 -31 23 -8 c13 -5 40 -6
59 -2 19 4 43 8 52 9 28 3 168 160 222 248 19 32 52 77 74 101 34 37 48 45 91
51 27 4 55 13 61 20 6 7 13 72 17 145 6 120 8 132 27 139 18 7 18 8 -7 13 -27
5 -27 5 -27 -56 0 -61 -18 -227 -25 -234 -2 -2 -36 -8 -75 -12 -40 -4 -75 -12
-80 -16 -4 -5 -13 -26 -20 -46 -10 -33 -14 -37 -30 -28 -25 13 -81 9 -87 -6
-2 -7 -16 -15 -30 -19 -16 -4 -23 -11 -19 -20 3 -8 2 -15 -3 -15 -8 0 -28 -41
-33 -70 -2 -8 -12 -20 -23 -27 -11 -6 -23 -22 -27 -35 -4 -12 -4 22 -1 77 6
102 17 150 31 141 5 -3 18 13 30 35 26 49 27 56 5 38 -15 -13 -15 -12 -2 9 8
12 17 22 22 22 4 0 5 -4 2 -10 -3 -5 -1 -10 4 -10 6 0 11 -6 11 -14 0 -12 43
-30 75 -31 6 0 15 -7 22 -15 15 -18 17 -6 3 21 -8 13 -7 19 0 19 6 0 9 3 7 8
-17 27 35 180 89 262 9 14 2 9 -15 -10 -18 -19 -29 -27 -25 -17 3 9 3 17 -2
17 -4 0 -17 -8 -28 -17 -21 -18 -21 -18 -3 3 9 11 17 25 17 31 0 5 14 29 31
53 17 23 26 39 20 36 -6 -4 -29 -34 -51 -67 -38 -55 -60 -73 -60 -48 0 5 -5 7
-12 3 -6 -4 -8 -3 -5 3 14 22 -134 184 -181 198 -19 6 -25 1 -42 -37z m240
-248 c0 -5 -5 -10 -11 -10 -5 0 -7 5 -4 10 3 6 8 10 11 10 2 0 4 -4 4 -10z
m-291 -53 c1 -10 -3 -15 -9 -12 -5 3 -10 21 -9 38 0 27 2 29 9 12 5 -11 9 -28
9 -38z m151 -147 c-6 -11 -13 -20 -16 -20 -2 0 0 9 6 20 6 11 13 20 16 20 2 0
0 -9 -6 -20z m255 -10 c-10 -11 -20 -18 -23 -15 -7 6 18 35 31 35 5 0 2 -9 -8
-20z m-74 -93 c-10 -9 -11 -8 -5 6 3 10 9 15 12 12 3 -3 0 -11 -7 -18z m-224
-199 c-3 -8 -6 -5 -6 6 -1 11 2 17 5 13 3 -3 4 -12 1 -19z m-30 -10 c-3 -8 -6
-5 -6 6 -1 11 2 17 5 13 3 -3 4 -12 1 -19z"/>
<path d="M1505 3798 l-40 -43 43 40 c39 36 47 45 39 45 -2 0 -21 -19 -42 -42z"/>
<path d="M2185 3810 l-20 -9 20 1 c11 0 34 4 50 8 l30 8 -30 0 c-16 0 -39 -3
-50 -8z"/>
<path d="M1622 3770 c0 -19 2 -27 5 -17 2 9 2 25 0 35 -3 9 -5 1 -5 -18z"/>
<path d="M2035 3753 c-44 -20 -94 -37 -112 -37 -28 -1 -30 -3 -18 -15 12 -12
19 -11 52 4 21 10 70 33 108 51 39 18 66 33 60 33 -5 0 -46 -16 -90 -36z"/>
<path d="M1858 3713 c7 -3 16 -2 19 1 4 3 -2 6 -13 5 -11 0 -14 -3 -6 -6z"/>
<path d="M2197 3593 c-40 -65 -41 -69 -4 -28 20 22 36 46 37 53 0 21 -9 14
-33 -25z"/>
<path d="M2164 3516 c-10 -8 -17 -17 -14 -19 3 -3 16 3 30 13 29 22 14 27 -16
6z"/>
<path d="M478 3323 c6 -2 18 -2 25 0 6 3 1 5 -13 5 -14 0 -19 -2 -12 -5z"/>
<path d="M442 3306 c-4 -6 -7 -13 -7 -16 -3 -24 -18 -49 -27 -44 -6 4 -6 -1 1
-14 8 -16 7 -21 -6 -26 -9 -4 -14 -9 -11 -11 3 -3 42 17 88 45 46 27 77 50 69
50 -8 0 -27 -9 -44 -21 -16 -11 -43 -27 -60 -35 -16 -8 -21 -9 -11 -2 25 17
76 64 76 70 0 11 -61 14 -68 4z"/>
<path d="M570 3286 c0 -2 9 -6 20 -9 11 -3 18 -1 14 4 -5 9 -34 13 -34 5z"/>
<path d="M790 3205 c-10 -12 -10 -15 4 -15 9 0 16 7 16 15 0 8 -2 15 -4 15 -2
0 -9 -7 -16 -15z"/>
<path d="M3138 3142 l-27 -18 36 -55 c19 -29 38 -57 42 -61 3 -4 7 29 9 73 3
71 2 79 -15 79 -10 0 -30 -8 -45 -18z"/>
<path d="M818 3043 c6 -2 18 -2 25 0 6 3 1 5 -13 5 -14 0 -19 -2 -12 -5z"/>
<path d="M1864 3028 l-19 -23 23 19 c21 18 27 26 19 26 -2 0 -12 -10 -23 -22z"/>
<path d="M2150 3028 c0 -33 -24 -116 -41 -139 -26 -37 -37 -31 -14 8 l17 28
-21 -25 c-19 -24 -25 -36 -22 -52 0 -4 -51 -59 -113 -123 -110 -113 -115 -117
-147 -110 l-34 6 33 -21 c37 -25 41 -35 11 -27 -12 3 -31 2 -43 -3 -11 -5 -48
-12 -81 -15 -46 -6 -55 -9 -41 -17 10 -5 27 -7 38 -5 29 8 13 -4 -55 -43 l-59
-32 6 58 c4 40 3 51 -3 34 -10 -27 -13 -165 -4 -140 10 25 45 55 105 89 l58
32 11 -28 c6 -15 15 -39 19 -53 7 -20 8 -13 9 28 1 38 5 52 13 50 7 -3 13 -13
14 -24 0 -10 2 -30 3 -44 2 -23 3 -24 11 -5 5 11 9 14 9 8 1 -21 26 -15 51 12
l23 25 -27 0 c-16 0 -25 4 -21 10 12 20 135 9 135 -12 0 -6 -8 -8 -19 -5 -10
2 -26 0 -35 -5 -25 -14 0 -41 31 -33 21 5 23 2 23 -31 0 -21 3 -34 7 -31 3 4
17 0 30 -8 22 -15 23 -15 25 17 1 18 1 44 0 57 l-1 24 24 -23 c14 -13 34 -43
46 -67 24 -49 32 -55 23 -17 -5 19 -4 25 5 20 19 -12 12 7 -21 58 -40 60 -100
99 -199 128 -41 12 -75 22 -77 24 -2 1 27 30 64 65 92 87 111 107 165 167 l47
52 8 -93 9 -92 6 160 c3 88 4 162 2 164 -2 2 -3 2 -3 -1z"/>
<path d="M1824 2978 l-19 -23 23 19 c21 18 27 26 19 26 -2 0 -12 -10 -23 -22z"/>
<path d="M1005 2950 c-3 -5 -1 -10 4 -10 6 0 11 5 11 10 0 6 -2 10 -4 10 -3 0
-8 -4 -11 -10z"/>
<path d="M1017 2913 c-14 -30 -14 -34 -2 -18 8 11 22 28 30 38 11 13 12 17 2
17 -7 0 -21 -17 -30 -37z"/>
<path d="M1774 2913 c-15 -21 -75 -91 -133 -156 -112 -126 -232 -280 -270
-347 -34 -61 -19 -48 24 21 37 60 130 182 191 250 l32 37 -5 -42 c-3 -22 -9
-45 -14 -51 -5 -5 -9 -16 -9 -24 0 -9 25 29 55 83 30 54 52 103 49 108 -3 5 0
7 8 6 7 -2 12 5 12 14 -1 10 2 16 7 15 5 -1 27 26 49 61 45 69 47 82 4 25z
m-114 -178 c-12 -20 -25 -34 -27 -31 -3 3 5 21 17 41 12 20 25 34 27 31 3 -3
-5 -21 -17 -41z"/>
<path d="M2731 2864 c0 -11 3 -14 6 -6 3 7 2 16 -1 19 -3 4 -6 -2 -5 -13z"/>
<path d="M3121 2865 c1 -19 18 -51 18 -35 0 8 -4 22 -9 30 -5 8 -9 11 -9 5z"/>
<path d="M3140 2803 c1 -5 7 -37 15 -73 9 -36 18 -135 22 -220 4 -103 9 -144
14 -121 4 19 14 38 23 43 20 11 47 62 53 102 3 17 6 32 8 34 2 2 -1 18 -6 35
l-8 32 19 -24 c11 -13 20 -21 20 -17 0 9 -93 151 -102 154 -4 2 -8 9 -8 16 0
7 -8 20 -18 29 -20 18 -32 22 -32 10z"/>
<path d="M2152 2625 c0 -16 2 -22 5 -12 2 9 2 23 0 30 -3 6 -5 -1 -5 -18z"/>
<path d="M706 2615 c-11 -8 -16 -15 -10 -15 5 0 18 7 28 15 11 8 16 15 10 15
-5 0 -18 -7 -28 -15z"/>
<path d="M2715 2571 c-17 -52 -62 -128 -103 -177 -15 -16 -4 -7 23 21 28 28
59 69 70 92 12 26 23 37 27 30 4 -7 8 9 8 36 0 26 -2 47 -4 47 -3 0 -12 -22
-21 -49z"/>
<path d="M1065 2520 c-16 -7 -17 -9 -3 -9 9 -1 20 4 23 9 7 11 7 11 -20 0z"/>
<path d="M2171 2514 c0 -11 3 -14 6 -6 3 7 2 16 -1 19 -3 4 -6 -2 -5 -13z"/>
<path d="M2331 2504 c0 -11 3 -14 6 -6 3 7 2 16 -1 19 -3 4 -6 -2 -5 -13z"/>
<path d="M2534 2498 c-3 -12 -27 -44 -52 -72 -26 -28 -58 -64 -72 -81 -25 -29
-24 -29 10 3 20 17 40 32 46 32 5 0 24 24 41 53 34 56 48 87 40 87 -3 0 -9
-10 -13 -22z"/>
<path d="M2565 2457 c-28 -39 -31 -46 -12 -28 29 26 33 23 16 -12 -10 -21 -10
-21 5 -3 9 12 13 28 10 39 -4 12 -2 17 4 13 8 -5 26 33 19 41 -2 1 -20 -21
-42 -50z"/>
<path d="M2741 2458 c-1 -27 3 -48 7 -48 4 0 6 17 4 38 -5 58 -10 62 -11 10z"/>
<path d="M640 2470 c-9 -6 -10 -10 -3 -10 6 0 15 5 18 10 8 12 4 12 -15 0z"/>
<path d="M2307 2433 c-9 -25 -15 -48 -13 -50 2 -2 12 16 21 42 10 25 16 47 13
50 -2 2 -12 -17 -21 -42z"/>
<path d="M668 2453 c7 -3 16 -2 19 1 4 3 -2 6 -13 5 -11 0 -14 -3 -6 -6z"/>
<path d="M713 2453 c9 -2 23 -2 30 0 6 3 -1 5 -18 5 -16 0 -22 -2 -12 -5z"/>
<path d="M1905 2450 c3 -5 8 -10 11 -10 2 0 4 5 4 10 0 6 -5 10 -11 10 -5 0
-7 -4 -4 -10z"/>
<path d="M727 2415 c-20 -14 -37 -28 -37 -31 0 -7 59 29 72 44 16 18 7 15 -35
-13z"/>
<path d="M1855 2420 c-4 -12 -5 -24 -2 -27 3 -2 8 5 12 17 4 12 5 24 2 27 -3
2 -8 -5 -12 -17z"/>
<path d="M3249 2413 l-24 -28 28 24 c25 23 32 31 24 31 -2 0 -14 -12 -28 -27z"/>
<path d="M1812 2385 c0 -16 2 -22 5 -12 2 9 2 23 0 30 -3 6 -5 -1 -5 -18z"/>
<path d="M2750 2342 c0 -71 3 -70 -100 -46 -61 13 -72 14 -97 1 -64 -34 -104
-102 -102 -177 0 -14 8 1 17 35 12 43 22 61 36 63 10 2 21 0 25 -5 8 -11 79
-53 91 -53 5 0 14 18 20 40 12 43 24 48 58 24 28 -19 28 -30 -2 -88 -23 -45
-23 -47 -3 -29 12 10 28 25 35 33 11 13 12 10 8 -20 -4 -19 -8 -55 -10 -80 -2
-25 -9 -58 -15 -74 -22 -56 -2 -37 27 26 33 72 56 137 50 144 -3 2 -13 -22
-23 -54 -10 -31 -20 -52 -22 -45 -2 7 0 21 6 32 6 11 11 36 11 57 0 31 3 36
20 31 25 -7 26 14 1 30 -16 10 -19 26 -20 109 -2 108 -11 145 -11 46z m-165
-62 c-28 -12 -37 -12 -30 0 3 6 16 10 28 9 21 0 21 -1 2 -9z m160 -31 c4 -6 5
-12 2 -15 -7 -7 -37 7 -37 17 0 13 27 11 35 -2z m-160 -9 c-3 -5 -20 -10 -36
-10 -18 0 -28 4 -24 10 3 6 20 10 36 10 18 0 28 -4 24 -10z"/>
<path d="M1951 2367 c-13 -21 -12 -21 5 -5 10 10 16 20 13 22 -3 3 -11 -5 -18
-17z"/>
<path d="M3097 2348 c-2 -18 -1 -42 4 -53 5 -14 8 -4 8 33 1 59 -4 68 -12 20z"/>
<path d="M1571 2319 c1 -30 5 -67 9 -84 4 -17 5 5 2 50 -6 93 -13 114 -11 34z"/>
<path d="M2276 2354 c-5 -14 -4 -15 9 -4 17 14 19 20 6 20 -5 0 -12 -7 -15
-16z"/>
<path d="M1337 2353 c-4 -3 -7 -11 -7 -17 0 -6 5 -5 12 2 6 6 9 14 7 17 -3 3
-9 2 -12 -2z"/>
<path d="M990 2330 c-6 -11 -8 -20 -6 -20 3 0 10 9 16 20 6 11 8 20 6 20 -3 0
-10 -9 -16 -20z"/>
<path d="M2013 2294 c-12 -19 -18 -34 -13 -34 9 0 44 59 38 65 -2 1 -13 -13
-25 -31z"/>
<path d="M2266 2316 c4 -12 4 -17 -2 -13 -5 3 -11 -6 -12 -21 l-1 -27 15 29
c12 21 13 31 4 40 -8 8 -9 6 -4 -8z"/>
<path d="M1300 2280 c-11 -22 -18 -40 -15 -40 2 0 14 18 25 40 11 22 18 40 15
40 -2 0 -14 -18 -25 -40z"/>
<path d="M2339 2283 l-34 -38 38 34 c34 33 42 41 34 41 -2 0 -19 -17 -38 -37z"/>
<path d="M1165 2290 c-10 -11 -46 -34 -79 -51 -34 -17 -53 -28 -44 -25 9 3 35
10 57 16 22 6 43 15 46 20 13 21 21 8 18 -27 l-2 -38 9 36 c12 47 19 89 16 89
-2 0 -11 -9 -21 -20z"/>
<path d="M450 2280 c-8 -5 -10 -10 -5 -10 6 0 17 5 25 10 8 5 11 10 5 10 -5 0
-17 -5 -25 -10z"/>
<path d="M1940 2250 c0 -5 7 -10 15 -10 8 0 15 5 15 10 0 6 -7 10 -15 10 -8 0
-15 -4 -15 -10z"/>
<path d="M2811 2244 c0 -11 3 -14 6 -6 3 7 2 16 -1 19 -3 4 -6 -2 -5 -13z"/>
<path d="M3113 2185 c0 -44 2 -61 4 -37 2 23 2 59 0 80 -2 20 -4 1 -4 -43z"/>
<path d="M345 2243 c11 -2 43 -13 70 -23 73 -28 221 -62 247 -57 16 3 13 5
-12 6 -29 2 -31 4 -15 11 19 7 18 8 -5 13 -14 3 -52 8 -85 10 -33 3 -87 14
-120 26 -32 12 -68 20 -80 20 -20 -1 -20 -1 0 -6z"/>
<path d="M1262 2205 c-17 -37 -14 -45 4 -12 9 16 14 31 11 33 -2 2 -9 -7 -15
-21z"/>
<path d="M2259 2213 c-13 -16 -12 -17 4 -4 9 7 17 15 17 17 0 8 -8 3 -21 -13z"/>
<path d="M2801 2204 c0 -11 3 -14 6 -6 3 7 2 16 -1 19 -3 4 -6 -2 -5 -13z"/>
<path d="M953 2190 c-24 -11 -43 -22 -43 -24 0 -6 101 32 109 40 10 10 -28 1
-66 -16z"/>
<path d="M3044 2188 c-7 -16 -6 -39 2 -73 l13 -50 -2 73 c0 39 -2 72 -2 72 -1
0 -6 -10 -11 -22z"/>
<path d="M1591 2180 c0 -8 4 -22 9 -30 12 -18 12 -2 0 25 -6 13 -9 15 -9 5z"/>
<path d="M1076 2171 c-4 -5 3 -7 14 -4 23 6 26 13 6 13 -8 0 -17 -4 -20 -9z"/>
<path d="M880 2160 c-9 -6 -10 -10 -3 -10 6 0 15 5 18 10 8 12 4 12 -15 0z"/>
<path d="M690 2150 c0 -5 4 -10 9 -10 6 0 13 5 16 10 3 6 -1 10 -9 10 -9 0
-16 -4 -16 -10z"/>
<path d="M1152 2135 c0 -16 2 -22 5 -12 2 9 2 23 0 30 -3 6 -5 -1 -5 -18z"/>
<path d="M1236 2145 c-9 -26 -7 -32 5 -12 6 10 9 21 6 23 -2 3 -7 -2 -11 -11z"/>
<path d="M1498 2123 c4 -30 6 -34 12 -18 6 16 -3 55 -13 55 -2 0 -1 -17 1 -37z"/>
<path d="M980 2116 c-30 -19 -89 -55 -130 -80 -41 -25 -71 -46 -67 -46 15 0
192 101 227 130 47 39 36 38 -30 -4z"/>
<path d="M570 2131 l-45 -6 35 -14 c21 -8 84 -15 160 -16 l125 -3 -115 8
c-161 10 -161 10 -105 25 55 14 28 17 -55 6z"/>
<path d="M1312 2120 c0 -14 2 -19 5 -12 2 6 2 18 0 25 -3 6 -5 1 -5 -13z"/>
<path d="M1538 2085 c26 -37 67 -81 112 -120 19 -16 4 4 -34 45 -96 103 -102
109 -78 75z"/>
<path d="M1610 2101 c0 -6 4 -13 10 -16 6 -3 7 1 4 9 -7 18 -14 21 -14 7z"/>
<path d="M2586 2085 c-9 -13 -26 -33 -38 -45 -12 -11 -17 -20 -11 -20 16 0 40
26 58 61 19 35 13 38 -9 4z"/>
<path d="M2990 2090 c-6 -11 -8 -20 -6 -20 3 0 10 9 16 20 6 11 8 20 6 20 -3
0 -10 -9 -16 -20z"/>
<path d="M1216 2085 c-9 -26 -7 -32 5 -12 6 10 9 21 6 23 -2 3 -7 -2 -11 -11z"/>
<path d="M1139 1985 l-4 -89 -45 -14 c-25 -7 -103 -17 -175 -22 l-130 -8 135
2 c74 2 143 6 153 11 34 15 15 -11 -46 -60 -42 -34 -56 -51 -45 -53 9 -2 29 4
45 13 27 15 27 15 3 10 -21 -5 -17 0 20 32 25 21 54 48 66 61 28 29 34 28 34
-5 0 -14 2 -24 4 -22 2 2 1 56 -3 119 l-8 115 -4 -90z"/>
<path d="M1630 2054 c0 -15 54 -97 76 -114 15 -11 14 -9 -3 10 -12 14 -33 45
-47 70 -14 25 -26 40 -26 34z"/>
<path d="M1516 1983 c3 -39 12 -97 19 -130 l13 -58 1 49 c1 27 6 64 13 82 10
30 9 37 -21 81 l-32 48 7 -72z"/>
<path d="M2696 2019 c-26 -63 -27 -84 -1 -30 14 30 23 56 20 59 -2 3 -11 -10
-19 -29z"/>
<path d="M1196 2025 c-9 -26 -7 -32 5 -12 6 10 9 21 6 23 -2 3 -7 -2 -11 -11z"/>
<path d="M1336 2000 c5 -44 4 -48 -38 -86 -24 -22 -67 -53 -96 -69 -56 -31
-66 -48 -10 -19 44 22 107 66 140 97 26 24 26 25 13 73 l-14 49 5 -45z"/>
<path d="M2830 1995 c-48 -70 -180 -162 -180 -125 0 5 5 9 11 8 6 -2 18 8 26
22 l15 25 -22 -25 -22 -25 6 30 c4 17 -9 -2 -31 -45 -36 -70 -43 -78 -118
-125 -77 -49 -80 -52 -82 -90 l-2 -40 18 45 c15 36 29 51 73 77 31 18 70 49
88 70 18 20 58 52 89 71 31 18 76 52 100 75 24 23 41 34 37 25 -3 -10 -9 -26
-12 -35 -5 -12 -4 -15 3 -8 12 12 45 107 39 112 -2 3 -18 -17 -36 -42z"/>
<path d="M670 1947 c-41 -16 -77 -32 -80 -34 -7 -6 23 -23 40 -22 10 0 8 3 -5
9 -21 8 -22 8 90 54 19 8 35 17 35 20 0 4 -1 6 -2 5 -2 0 -37 -15 -78 -32z"/>
<path d="M1176 1955 c-3 -9 -6 -22 -5 -28 0 -7 5 -1 10 12 5 13 8 26 5 28 -2
2 -6 -3 -10 -12z"/>
<path d="M2865 1934 c-22 -19 -31 -31 -20 -25 19 8 74 61 64 61 -2 0 -22 -16
-44 -36z"/>
<path d="M2931 1954 c0 -11 3 -14 6 -6 3 7 2 16 -1 19 -3 4 -6 -2 -5 -13z"/>
<path d="M2921 1914 c0 -11 3 -14 6 -6 3 7 2 16 -1 19 -3 4 -6 -2 -5 -13z"/>
<path d="M658 1883 c7 -3 16 -2 19 1 4 3 -2 6 -13 5 -11 0 -14 -3 -6 -6z"/>
<path d="M2911 1874 c0 -11 3 -14 6 -6 3 7 2 16 -1 19 -3 4 -6 -2 -5 -13z"/>
<path d="M698 1873 c7 -3 16 -2 19 1 4 3 -2 6 -13 5 -11 0 -14 -3 -6 -6z"/>
<path d="M3044 1858 l-19 -23 23 19 c12 11 22 21 22 23 0 8 -8 2 -26 -19z"/>
<path d="M738 1863 c6 -2 18 -2 25 0 6 3 1 5 -13 5 -14 0 -19 -2 -12 -5z"/>
<path d="M1386 1840 c3 -14 14 -44 25 -67 12 -30 14 -43 6 -43 -7 0 -4 -5 6
-11 14 -8 57 -77 57 -92 0 -2 -21 -12 -46 -22 -59 -22 -51 -29 12 -10 45 14
50 14 59 -1 34 -56 131 -168 191 -219 97 -83 114 -96 83 -60 -39 45 -70 93
-111 170 -21 38 -38 66 -38 62 0 -11 49 -107 72 -140 38 -53 10 -39 -58 29
-77 78 -161 201 -208 307 -18 39 -38 83 -44 97 l-12 25 6 -25z"/>
<path d="M2881 1783 c-13 -38 -45 -113 -73 -168 -27 -55 -45 -95 -39 -90 13
14 121 229 121 244 0 6 4 11 10 11 5 0 11 -26 13 -57 3 -56 3 -55 4 12 1 39
-2 80 -5 93 -6 18 -11 10 -31 -45z"/>
<path d="M3365 1829 c-4 -6 -5 -12 -2 -15 2 -3 7 2 10 11 7 17 1 20 -8 4z"/>
<path d="M2991 1823 c0 -6 -4 -19 -7 -27 -10 -25 24 -8 37 18 9 20 9 20 -5 3
-14 -18 -14 -18 -19 0 -3 10 -5 13 -6 6z"/>
<path d="M3096 1808 c-13 -44 -26 -122 -21 -126 3 -3 5 2 5 11 0 23 5 22 50
-14 38 -31 39 -32 24 -60 -8 -16 -12 -29 -9 -29 2 0 21 33 41 73 20 39 33 69
29 65 -5 -4 -15 -2 -24 5 -14 10 -14 10 -3 -5 11 -14 11 -21 0 -43 l-14 -26
-42 31 c-23 16 -42 33 -42 38 1 4 5 26 9 50 8 38 5 59 -3 30z"/>
<path d="M1115 1800 c-3 -6 1 -7 9 -4 18 7 21 14 7 14 -6 0 -13 -4 -16 -10z"/>
<path d="M1551 1774 c0 -11 3 -14 6 -6 3 7 2 16 -1 19 -3 4 -6 -2 -5 -13z"/>
<path d="M1095 1770 c-3 -5 -2 -10 4 -10 5 0 13 5 16 10 3 6 2 10 -4 10 -5 0
-13 -4 -16 -10z"/>
<path d="M1274 1755 c-3 -8 -4 -20 -2 -27 3 -7 7 -1 10 15 6 29 1 36 -8 12z"/>
<path d="M2967 1753 c-4 -3 -7 -11 -7 -17 0 -6 5 -5 12 2 6 6 9 14 7 17 -3 3
-9 2 -12 -2z"/>
<path d="M2991 1744 c0 -11 3 -14 6 -6 3 7 2 16 -1 19 -3 4 -6 -2 -5 -13z"/>
<path d="M1562 1740 c0 -8 6 -31 13 -50 7 -19 13 -28 13 -20 0 8 -6 31 -13 50
-7 19 -13 28 -13 20z"/>
<path d="M1100 1715 c-19 -14 -30 -25 -24 -25 10 0 73 49 63 50 -3 0 -20 -11
-39 -25z"/>
<path d="M2616 1716 c-3 -13 -18 -39 -33 -58 -15 -18 -19 -26 -9 -18 18 14 19
13 13 -17 -4 -18 -5 -33 -3 -33 7 0 48 141 43 146 -2 3 -7 -6 -11 -20z"/>
<path d="M1034 1698 l-19 -23 23 19 c21 18 27 26 19 26 -2 0 -12 -10 -23 -22z"/>
<path d="M2937 1685 c-9 -19 -15 -35 -12 -35 7 0 37 61 33 66 -3 2 -12 -12
-21 -31z"/>
<path d="M1271 1674 c0 -11 3 -14 6 -6 3 7 2 16 -1 19 -3 4 -6 -2 -5 -13z"/>
<path d="M1038 1669 c-6 -4 5 -6 25 -5 21 2 40 5 42 8 8 8 -53 5 -67 -3z"/>
<path d="M2375 1665 c-25 -12 -26 -14 -5 -9 28 7 60 23 45 23 -5 0 -23 -6 -40
-14z"/>
<path d="M2966 1663 c-6 -14 -5 -15 5 -6 7 7 10 15 7 18 -3 3 -9 -2 -12 -12z"/>
<path d="M955 1650 c-13 -6 -15 -9 -5 -9 8 0 22 4 30 9 18 12 2 12 -25 0z"/>
<path d="M1039 1633 c-13 -15 -12 -15 9 -4 23 12 28 21 13 21 -5 0 -15 -7 -22
-17z"/>
<path d="M1590 1645 c0 -5 5 -17 10 -25 5 -8 10 -10 10 -5 0 6 -5 17 -10 25
-5 8 -10 11 -10 5z"/>
<path d="M2902 1645 c5 -5 -4 -24 -19 -43 -15 -20 -22 -32 -15 -28 6 3 20 20
32 36 15 22 17 30 8 36 -7 4 -10 4 -6 -1z"/>
<path d="M2265 1630 c-13 -5 -14 -9 -5 -9 8 0 24 4 35 9 13 5 14 9 5 9 -8 0
-24 -4 -35 -9z"/>
<path d="M3260 1620 c-6 -11 -8 -20 -6 -20 3 0 10 9 16 20 6 11 8 20 6 20 -3
0 -10 -9 -16 -20z"/>
<path d="M3052 1610 c0 -14 2 -19 5 -12 2 6 2 18 0 25 -3 6 -5 1 -5 -13z"/>
<path d="M1281 1600 c-1 -15 4 -31 10 -37 11 -11 -4 -15 -263 -63 -86 -15
-173 -38 -195 -49 -49 -26 -38 -26 27 -1 27 11 50 16 50 10 0 -5 16 -2 35 6
19 7 42 14 52 13 19 0 -46 -27 -85 -34 -39 -7 -181 -144 -182 -175 0 -8 8 -1
19 15 27 45 103 110 161 140 29 15 54 24 57 21 3 -3 -18 -30 -48 -61 -59 -62
-112 -134 -136 -182 -13 -27 -71 -83 -87 -83 -2 0 -7 8 -9 18 -3 12 -5 10 -6
-7 0 -14 -9 -33 -18 -44 -10 -11 6 -2 35 21 30 23 57 42 60 42 4 0 27 35 52
78 29 49 77 109 135 168 l90 90 100 17 c88 16 163 38 230 68 15 7 9 8 -24 6
-40 -2 -46 1 -52 23 l-7 25 -1 -25z"/>
<path d="M1950 1615 c0 -2 15 -14 33 -27 30 -21 42 -23 169 -23 75 0 133 4
129 8 -5 5 -64 8 -133 8 -103 -1 -130 2 -161 18 -20 10 -37 17 -37 16z"/>
<path d="M2218 1613 c7 -3 16 -2 19 1 4 3 -2 6 -13 5 -11 0 -14 -3 -6 -6z"/>
<path d="M2178 1603 c7 -3 16 -2 19 1 4 3 -2 6 -13 5 -11 0 -14 -3 -6 -6z"/>
<path d="M954 1584 c-18 -14 -18 -15 4 -4 12 6 22 13 22 15 0 8 -5 6 -26 -11z"/>
<path d="M1610 1595 c0 -5 5 -17 10 -25 5 -8 10 -10 10 -5 0 6 -5 17 -10 25
-5 8 -10 11 -10 5z"/>
<path d="M2138 1593 c7 -3 16 -2 19 1 4 3 -2 6 -13 5 -11 0 -14 -3 -6 -6z"/>
<path d="M2416 1583 c-6 -14 -5 -15 5 -6 7 7 10 15 7 18 -3 3 -9 -2 -12 -12z"/>
<path d="M2946 1585 c-3 -9 -6 -22 -5 -28 0 -7 5 -1 10 12 5 13 8 26 5 28 -2
2 -6 -3 -10 -12z"/>
<path d="M1492 1555 c0 -16 2 -22 5 -12 2 9 2 23 0 30 -3 6 -5 -1 -5 -18z"/>
<path d="M2566 1565 c-3 -9 -6 -22 -5 -28 0 -7 5 -1 10 12 5 13 8 26 5 28 -2
2 -6 -3 -10 -12z"/>
<path d="M904 1554 c-18 -14 -18 -15 4 -4 12 6 22 13 22 15 0 8 -5 6 -26 -11z"/>
<path d="M1970 1543 c0 -10 79 -78 84 -72 1 2 -17 21 -41 43 -24 21 -43 34
-43 29z"/>
<path d="M3225 1539 c-4 -6 -5 -12 -2 -15 2 -3 7 2 10 11 7 17 1 20 -8 4z"/>
<path d="M859 1523 c-13 -16 -12 -17 4 -4 9 7 17 15 17 17 0 8 -8 3 -21 -13z"/>
<path d="M3105 1529 c-4 -6 -5 -12 -2 -15 2 -3 7 2 10 11 7 17 1 20 -8 4z"/>
<path d="M3032 1500 c0 -14 2 -19 5 -12 2 6 2 18 0 25 -3 6 -5 1 -5 -13z"/>
<path d="M799 1473 l-34 -38 38 34 c20 19 37 36 37 38 0 8 -8 0 -41 -34z"/>
<path d="M2710 1503 c0 -1 9 -7 19 -12 14 -8 20 -7 24 2 3 7 -5 12 -19 12 -13
0 -24 -1 -24 -2z"/>
<path d="M2916 1484 c-4 -14 -5 -28 -3 -31 3 -2 8 8 11 23 4 14 5 28 3 31 -3
2 -8 -8 -11 -23z"/>
<path d="M2256 1485 c-3 -8 -1 -14 4 -12 5 1 20 -9 32 -23 26 -29 22 -18 -9
22 -16 22 -22 25 -27 13z"/>
<path d="M2645 1489 c-4 -5 5 -28 20 -50 l26 -40 -41 -50 c-64 -76 -117 -117
-215 -166 -49 -24 -76 -42 -60 -38 44 10 146 69 206 120 l52 44 31 -20 31 -21
-29 25 -29 25 28 36 c23 31 30 34 43 24 8 -7 -2 13 -23 45 -32 48 -36 60 -24
68 9 5 10 9 2 9 -6 0 -15 -5 -18 -11z"/>
<path d="M2568 1449 c-9 -16 -13 -29 -7 -29 9 0 33 49 27 56 -2 1 -11 -11 -20
-27z"/>
<path d="M3070 1460 c-6 -12 -17 -17 -28 -14 -14 5 -14 4 -2 -4 8 -6 18 -8 22
-6 10 6 30 44 24 44 -3 0 -10 -9 -16 -20z"/>
<path d="M2236 1443 c-8 -21 1 -30 39 -37 29 -5 29 -5 -3 6 -25 8 -31 15 -27
30 8 23 -1 24 -9 1z"/>
<path d="M2795 1440 c10 -11 20 -20 23 -20 3 0 -3 9 -13 20 -10 11 -20 20 -23
20 -3 0 3 -9 13 -20z"/>
<path d="M3182 1440 c-13 -21 -6 -26 15 -12 7 4 9 13 5 19 -6 9 -11 6 -20 -7z"/>
<path d="M2169 1427 c5 -5 19 -7 32 -5 20 3 19 5 -9 9 -20 3 -29 2 -23 -4z"/>
<path d="M3246 1417 c3 -10 9 -15 12 -12 3 3 0 11 -7 18 -10 9 -11 8 -5 -6z"/>
<path d="M734 1398 l-19 -23 23 19 c21 18 27 26 19 26 -2 0 -12 -10 -23 -22z"/>
<path d="M1571 1384 c0 -11 3 -14 6 -6 3 7 2 16 -1 19 -3 4 -6 -2 -5 -13z"/>
<path d="M2350 1390 c20 -13 33 -13 25 0 -3 6 -14 10 -23 10 -15 0 -15 -2 -2
-10z"/>
<path d="M2459 1373 c-13 -16 -12 -17 4 -4 9 7 17 15 17 17 0 8 -8 3 -21 -13z"/>
<path d="M2475 1360 c-3 -6 1 -7 9 -4 18 7 21 14 7 14 -6 0 -13 -4 -16 -10z"/>
<path d="M2503 1328 c-17 -24 -59 -72 -94 -107 -35 -35 -55 -59 -44 -53 30 16
140 139 169 190 16 27 -2 10 -31 -30z"/>
<path d="M2419 1333 c-13 -15 -12 -15 11 -3 34 17 36 20 18 20 -9 0 -22 -7
-29 -17z"/>
<path d="M3184 1278 l-19 -23 23 19 c21 18 27 26 19 26 -2 0 -12 -10 -23 -22z"/>
<path d="M693 1234 c-7 -7 -13 -21 -13 -31 0 -12 5 -9 15 11 17 33 16 41 -2
20z"/>
<path d="M1591 1234 c0 -11 3 -14 6 -6 3 7 2 16 -1 19 -3 4 -6 -2 -5 -13z"/>
<path d="M2771 1204 c0 -11 3 -14 6 -6 3 7 2 16 -1 19 -3 4 -6 -2 -5 -13z"/>
<path d="M2732 1195 c2 -5 18 -39 36 -75 18 -36 32 -75 32 -87 0 -12 5 -25 12
-29 8 -5 9 -2 4 11 -4 11 -10 38 -13 62 -3 23 -10 40 -14 37 -5 -3 -9 -2 -9 3
0 4 -12 26 -26 48 -14 22 -24 36 -22 30z"/>
<path d="M2315 1140 c-3 -5 -2 -10 4 -10 5 0 13 5 16 10 3 6 2 10 -4 10 -5 0
-13 -4 -16 -10z"/>
<path d="M990 1106 c0 -2 8 -10 18 -17 15 -13 16 -12 3 4 -13 16 -21 21 -21
13z"/>
<path d="M2530 1106 c0 -2 8 -10 18 -17 15 -13 16 -12 3 4 -13 16 -21 21 -21
13z"/>
<path d="M2585 1040 c10 -11 20 -20 23 -20 3 0 -3 9 -13 20 -10 11 -20 20 -23
20 -3 0 3 -9 13 -20z"/>
<path d="M599 1033 c-13 -16 -12 -17 4 -4 9 7 17 15 17 17 0 8 -8 3 -21 -13z"/>
<path d="M1175 1020 c10 -11 20 -20 23 -20 3 0 -3 9 -13 20 -10 11 -20 20 -23
20 -3 0 3 -9 13 -20z"/>
<path d="M1697 1005 c-53 -40 -54 -41 -60 -17 -4 16 -5 16 -6 -1 -2 -33 28
-30 71 7 47 40 62 44 77 19 6 -10 11 -13 11 -7 0 13 -21 34 -36 34 -6 0 -32
-16 -57 -35z"/>
<path d="M1412 1021 c-25 -15 -39 -75 -29 -129 5 -30 11 -51 14 -49 2 3 0 27
-5 54 -11 63 -1 89 37 98 29 6 57 -4 109 -41 12 -9 22 -14 22 -12 0 8 -87 67
-112 77 -14 5 -30 6 -36 2z"/>
<path d="M2701 1004 c-17 -14 -31 -31 -31 -37 0 -7 11 1 23 17 32 40 53 29 72
-38 9 -30 22 -59 30 -66 16 -13 39 -105 31 -119 -4 -6 -25 3 -51 21 -32 22
-45 39 -45 55 0 36 -28 83 -79 133 -43 43 -44 43 -18 8 32 -43 32 -45 10 -52
-15 -4 -15 -5 2 -4 38 1 42 -2 60 -41 20 -46 14 -76 -14 -68 -13 3 -22 -3 -29
-17 -16 -35 -63 -87 -74 -80 -5 3 -24 38 -42 78 -18 39 -41 78 -51 86 -15 12
-14 9 3 -15 12 -16 31 -57 43 -90 32 -92 51 -97 100 -26 44 63 65 67 127 23
29 -20 55 -31 62 -27 18 11 6 79 -24 137 -33 64 -33 72 4 65 25 -5 30 -3 30
13 0 10 -4 22 -10 25 -5 3 -10 -1 -10 -9 0 -10 -9 -16 -25 -16 -18 0 -26 7
-31 25 -11 43 -28 48 -63 19z"/>
<path d="M1320 985 c-7 -8 -9 -15 -6 -15 4 0 14 7 22 15 9 8 11 15 6 15 -5 0
-15 -7 -22 -15z"/>
<path d="M2467 983 c-10 -9 -8 -56 2 -72 6 -10 8 0 4 27 -6 41 -5 42 24 42 16
0 52 -11 79 -25 l49 -24 -29 24 c-37 29 -112 46 -129 28z"/>
<path d="M1789 930 c-6 -63 -2 -78 7 -32 4 18 12 32 18 32 8 0 8 2 0 8 -7 4
-14 16 -16 27 -3 11 -7 -5 -9 -35z"/>
<path d="M1597 943 c33 -4 36 -9 46 -73 3 -20 5 -18 6 8 2 51 -14 72 -52 70
l-32 -1 32 -4z"/>
<path d="M1542 905 c0 -16 2 -22 5 -12 2 9 2 23 0 30 -3 6 -5 -1 -5 -18z"/>
<path d="M2840 920 c0 -8 5 -22 10 -30 9 -13 10 -13 10 0 0 8 -5 22 -10 30 -9
13 -10 13 -10 0z"/>
<path d="M3130 865 c0 -8 7 -15 16 -15 14 0 14 3 4 15 -7 8 -14 15 -16 15 -2
0 -4 -7 -4 -15z"/>
<path d="M2861 854 c0 -11 3 -14 6 -6 3 7 2 16 -1 19 -3 4 -6 -2 -5 -13z"/>
<path d="M1791 844 c0 -11 3 -14 6 -6 3 7 2 16 -1 19 -3 4 -6 -2 -5 -13z"/>
<path d="M3141 830 c-1 -17 70 -172 76 -166 3 2 -8 28 -23 57 -14 29 -32 69
-40 89 -7 19 -13 28 -13 20z"/>
<path d="M1383 795 c0 -22 2 -30 4 -17 2 12 2 30 0 40 -3 9 -5 -1 -4 -23z"/>
<path d="M1617 819 c-10 -6 -31 -7 -47 -4 -18 4 -30 2 -30 -3 0 -17 -51 -73
-74 -82 -61 -22 -66 -22 -67 2 -1 18 -2 19 -6 4 -3 -10 -1 -22 4 -27 15 -15
100 20 131 55 40 46 106 55 142 21 50 -47 130 -80 130 -54 0 5 -4 8 -9 5 -16
-10 -78 23 -109 59 -34 38 -38 40 -65 24z"/>
<path d="M2871 814 c0 -11 3 -14 6 -6 3 7 2 16 -1 19 -3 4 -6 -2 -5 -13z"/>
<path d="M1802 780 c0 -19 2 -27 5 -17 2 9 2 25 0 35 -3 9 -5 1 -5 -18z"/>
<path d="M2882 775 c0 -11 4 -31 8 -45 6 -20 8 -21 8 -5 0 11 -4 31 -8 45 -6
20 -8 21 -8 5z"/>
<path d="M350 702 c0 -4 14 -23 30 -42 l31 -35 -27 43 c-26 42 -34 49 -34 34z"/>
<path d="M3324 666 c20 -27 36 -52 36 -56 0 -3 -18 -18 -40 -33 l-40 -26 -15
30 c-9 16 -18 29 -20 29 -8 0 96 -205 106 -208 4 -2 7 -9 5 -15 -1 -7 -1 -9 2
-4 2 4 31 -17 65 -46 34 -30 109 -88 167 -131 111 -81 94 -64 -55 54 -49 39
-114 94 -143 122 l-54 52 33 27 c32 26 32 27 11 33 -12 4 -26 4 -32 1 -5 -3
-10 -2 -10 4 0 5 5 13 10 16 6 3 10 12 10 18 0 7 -10 -3 -22 -21 l-21 -34 -13
24 c-7 12 -13 29 -14 35 0 15 70 52 88 46 17 -6 -18 52 -58 97 -28 31 -27 29
4 -14z m56 -184 c0 -12 -40 -33 -50 -27 -15 10 -12 23 8 28 28 8 42 7 42 -1z"/>
<path d="M2902 685 c0 -11 3 -29 8 -40 11 -25 11 1 0 35 -6 20 -8 21 -8 5z"/>
<path d="M581 659 c-30 -48 -26 -59 4 -14 15 20 24 40 21 42 -3 3 -14 -10 -25
-28z"/>
<path d="M3220 641 c0 -5 5 -13 10 -16 6 -3 10 -2 10 4 0 5 -4 13 -10 16 -5 3
-10 2 -10 -4z"/>
<path d="M563 578 c-5 -13 -16 -45 -24 -72 -8 -29 -21 -51 -31 -53 -11 -3 -15
-13 -13 -31 3 -28 -28 -113 -90 -246 -20 -43 -34 -80 -31 -83 2 -3 14 17 26
44 46 103 151 358 166 405 17 50 15 75 -3 36z"/>
<path d="M327 576 c-3 -8 2 -20 11 -28 15 -11 16 -11 4 4 -10 13 -10 17 0 20
8 3 9 6 1 11 -6 4 -13 0 -16 -7z"/>
<path d="M873 576 c0 -8 4 -13 8 -10 4 2 15 -6 23 -18 9 -12 16 -18 16 -12 0
6 -10 20 -23 32 -18 17 -24 19 -24 8z"/>
<path d="M2946 545 c4 -16 11 -37 15 -45 6 -10 7 -4 3 15 -4 17 -11 37 -15 45
-6 10 -7 4 -3 -15z"/>
<path d="M3360 563 c0 -5 23 -21 50 -36 28 -16 50 -26 50 -23 0 2 -18 15 -40
27 -22 13 -40 26 -40 31 0 4 -4 8 -10 8 -5 0 -10 -3 -10 -7z"/>
<path d="M360 536 c0 -2 8 -10 18 -17 15 -13 16 -12 3 4 -13 16 -21 21 -21 13z"/>
<path d="M1055 509 c-4 -6 -5 -12 -2 -15 2 -3 7 2 10 11 7 17 1 20 -8 4z"/>
<path d="M1146 493 c-11 -12 -6 -22 9 -17 15 6 152 -122 173 -161 6 -11 13
-17 17 -14 7 7 -125 150 -165 179 -15 11 -30 17 -34 13z"/>
<path d="M2874 458 c-16 -18 -38 -44 -49 -58 -19 -24 -18 -23 11 2 l30 28 11
-30 c10 -28 10 -30 -11 -30 -12 0 -31 -7 -42 -16 -18 -15 -18 -15 3 -5 52 25
79 2 104 -89 l7 -25 1 24 c2 35 -20 101 -47 145 l-25 40 27 23 c15 13 23 23
19 23 -5 0 -22 -15 -39 -32z"/>
<path d="M3510 475 c14 -8 30 -14 35 -14 6 0 -1 6 -15 14 -14 8 -29 14 -35 14
-5 0 1 -6 15 -14z"/>
<path d="M1050 471 c0 -6 4 -13 10 -16 6 -3 7 1 4 9 -7 18 -14 21 -14 7z"/>
<path d="M1974 445 c-10 -26 1 -35 13 -10 6 14 7 25 2 25 -5 0 -12 -7 -15 -15z"/>
<path d="M2520 449 c0 -5 5 -7 10 -4 6 3 10 8 10 11 0 2 -4 4 -10 4 -5 0 -10
-5 -10 -11z"/>
<path d="M3570 450 c8 -5 20 -10 25 -10 6 0 3 5 -5 10 -8 5 -19 10 -25 10 -5
0 -3 -5 5 -10z"/>
<path d="M1111 433 c-8 -15 -11 -15 -27 -3 -16 14 -16 13 -5 -8 14 -27 7 -42
-22 -43 -17 -1 -18 -2 -4 -6 19 -5 22 -18 7 -28 -5 -3 -10 -11 -10 -17 0 -6 9
-3 20 7 11 10 20 23 20 29 0 6 9 17 20 23 24 16 37 -1 18 -25 -12 -15 -11 -16
5 -3 15 12 17 11 17 -3 0 -9 -4 -17 -10 -17 -5 -1 -14 -2 -18 -3 -5 0 -26 -18
-47 -39 -40 -40 -54 -43 -35 -8 6 12 8 21 6 21 -11 0 -36 -61 -30 -72 4 -6 3
-8 -4 -5 -10 7 -97 -141 -89 -150 2 -2 18 23 35 55 30 56 117 149 175 187 27
17 28 17 42 -1 20 -26 18 -15 -4 32 -11 22 -23 52 -26 67 -8 31 -20 34 -34 10z"/>
<path d="M2110 443 c0 -5 5 -15 10 -23 8 -12 10 -11 10 8 0 12 -4 22 -10 22
-5 0 -10 -3 -10 -7z"/>
<path d="M2400 430 c-12 -7 -12 -12 -2 -22 9 -9 12 -9 12 4 0 9 6 19 13 21 6
3 8 6 2 6 -5 0 -17 -4 -25 -9z"/>
<path d="M470 410 c0 -5 -14 -26 -32 -47 l-32 -38 42 39 c22 22 39 43 36 48
-7 11 -14 10 -14 -2z"/>
<path d="M1520 412 c0 -4 18 -6 40 -4 22 2 40 6 40 8 0 2 -18 4 -40 4 -22 0
-40 -3 -40 -8z"/>
<path d="M1686 410 c37 -15 38 -30 2 -31 -31 -2 -31 -2 -5 -6 16 -3 31 -11 34
-19 4 -11 9 -12 19 -3 8 6 14 17 14 23 0 14 -52 46 -72 45 -7 0 -3 -4 8 -9z
m54 -40 c0 -5 -2 -10 -4 -10 -3 0 -8 5 -11 10 -3 6 -1 10 4 10 6 0 11 -4 11
-10z"/>
<path d="M2527 413 c-3 -5 -1 -17 4 -28 7 -17 8 -17 8 8 1 27 -4 34 -12 20z"/>
<path d="M2424 388 l-19 -23 23 19 c21 18 27 26 19 26 -2 0 -12 -10 -23 -22z"/>
<path d="M1993 388 c-12 -6 -25 -18 -28 -26 -5 -14 -4 -14 12 0 10 8 27 20 38
26 25 14 7 14 -22 0z"/>
<path d="M2106 387 c3 -10 9 -15 12 -12 3 3 0 11 -7 18 -10 9 -11 8 -5 -6z"/>
<path d="M2791 356 c-7 -8 -31 -18 -54 -22 -23 -4 -36 -9 -29 -11 25 -9 77 7
90 27 14 23 10 27 -7 6z"/>
<path d="M3360 351 c0 -5 5 -13 10 -16 6 -3 10 -2 10 4 0 5 -4 13 -10 16 -5 3
-10 2 -10 -4z"/>
<path d="M3380 307 c0 -7 4 -17 8 -22 5 -6 19 -39 32 -75 13 -36 28 -69 33
-75 7 -7 8 -6 3 3 -4 6 -2 12 3 12 6 0 11 -4 11 -9 0 -11 79 -65 86 -59 3 3
-10 15 -28 26 -54 33 -85 73 -113 145 -27 66 -35 79 -35 54z"/>
<path d="M1190 291 c0 -6 4 -13 10 -16 6 -3 7 1 4 9 -7 18 -14 21 -14 7z"/>
<path d="M1216 237 c3 -10 9 -15 12 -12 3 3 0 11 -7 18 -10 9 -11 8 -5 -6z"/>
<path d="M2945 195 c3 -22 5 -57 5 -77 0 -21 5 -38 10 -38 11 0 4 85 -12 130
-6 19 -7 15 -3 -15z"/>
<path d="M1230 201 c0 -6 4 -13 10 -16 6 -3 7 1 4 9 -7 18 -14 21 -14 7z"/>
<path d="M2387 83 c79 -2 207 -2 286 0 78 1 14 3 -143 3 -157 0 -221 -2 -143
-3z"/>
</g>
</svg>
