<?xml version="1.0" standalone="no"?>
<!DOCTYPE svg PUBLIC "-//W3C//DTD SVG 20010904//EN"
 "http://www.w3.org/TR/2001/REC-SVG-20010904/DTD/svg10.dtd">
<svg version="1.0" xmlns="http://www.w3.org/2000/svg"
 width="396.000000pt" height="396.000000pt" viewBox="0 0 396.000000 396.000000"
 preserveAspectRatio="xMidYMid meet">

<g transform="translate(0.000000,396.000000) scale(0.100000,-0.100000)"
fill="#000000" stroke="none">
<path d="M1560 3849 c-41 -25 -87 -73 -139 -149 -57 -82 -64 -86 -83 -47 -31
63 -168 197 -202 197 -10 0 -45 -82 -60 -140 -8 -30 -22 -81 -30 -113 -9 -32
-16 -68 -16 -81 0 -16 -10 -27 -34 -38 -36 -18 -98 -93 -161 -195 -21 -35 -43
-67 -49 -73 -8 -6 -31 2 -72 27 -94 57 -180 93 -223 93 -36 0 -43 -4 -69 -42
-15 -24 -37 -61 -46 -83 -10 -22 -21 -43 -23 -48 -3 -4 33 17 80 47 135 88
142 89 206 22 19 -19 38 -33 42 -30 4 2 11 -1 15 -7 5 -8 3 -9 -6 -4 -8 5 -11
3 -8 -6 3 -8 10 -14 15 -14 6 0 15 -4 20 -9 5 -5 2 -6 -6 -1 -9 5 -12 3 -9 -6
3 -8 10 -13 16 -12 5 1 16 -5 24 -15 12 -15 11 -16 -4 -3 -29 22 -21 0 12 -34
l30 -31 -63 8 c-34 3 -116 10 -181 14 l-119 7 51 -62 c28 -34 57 -72 63 -84
10 -17 13 -19 17 -7 6 19 20 29 105 81 l67 42 63 -13 c34 -6 82 -23 107 -38
25 -14 56 -32 70 -39 22 -11 6 -13 -115 -13 -77 0 -145 -4 -151 -8 -7 -4 66
-7 161 -7 l172 0 -14 -21 c-14 -22 -109 -66 -178 -84 -33 -8 -26 -9 48 -6 76
3 86 2 76 -11 -18 -21 -59 -40 -102 -48 -51 -10 -40 -17 12 -9 23 4 59 18 79
31 l37 25 -31 -32 c-34 -35 -143 -69 -224 -70 -37 -1 -41 -3 -22 -10 12 -5 38
-10 57 -12 36 -2 46 -12 21 -21 -25 -10 -98 -58 -94 -62 2 -3 38 8 79 24 121
47 121 47 107 16 -6 -14 -35 -39 -63 -55 -29 -16 -69 -44 -91 -61 -21 -17 -57
-40 -79 -52 l-40 -21 45 -8 c25 -5 61 -6 80 -4 l35 6 -30 -25 c-65 -53 -288
-153 -380 -171 l-36 -6 73 -25 c88 -30 214 -63 240 -63 10 0 18 -4 18 -10 0
-9 -66 -16 -113 -12 -35 3 -11 -22 34 -37 30 -10 94 -14 201 -15 l156 -1 -81
-48 c-76 -43 -237 -117 -258 -117 -5 0 -9 -4 -9 -10 0 -10 72 -33 159 -51 33
-6 118 -9 200 -7 l142 3 -28 -24 c-15 -13 -47 -41 -71 -62 l-43 -37 61 19 c33
10 70 24 81 30 29 15 32 6 8 -20 -12 -12 -18 -25 -15 -28 3 -4 12 0 19 9 6 8
48 35 92 59 44 24 99 63 123 87 23 23 44 42 47 42 2 0 9 -24 16 -54 9 -43 9
-58 -2 -82 -13 -26 -19 -29 -57 -26 l-42 4 0 -48 c0 -53 -5 -59 -92 -104 -60
-32 -84 -39 -54 -17 25 18 18 63 -9 59 -18 -2 -18 -2 -2 8 24 16 22 33 -3 20
-33 -17 -23 -6 25 30 59 44 57 55 -4 24 -28 -13 -53 -23 -58 -22 -4 2 -29 -12
-56 -30 -26 -18 -83 -46 -126 -62 -99 -36 -147 -58 -162 -76 -6 -7 27 4 73 26
73 34 246 86 255 76 2 -2 -34 -25 -79 -51 -127 -74 -214 -147 -202 -167 3 -5
1 -7 -3 -6 -9 3 -49 -27 -116 -85 l-32 -29 36 26 c20 14 39 26 42 26 4 0 -7
-23 -24 -51 -16 -28 -28 -54 -25 -56 2 -3 11 8 20 24 l15 28 2 -35 c1 -35 1
-35 10 8 17 90 36 112 120 143 l75 27 -80 -81 c-131 -133 -137 -142 -139 -211
l-2 -60 -147 -135 c-80 -74 -163 -156 -183 -182 l-36 -48 20 -40 c12 -22 21
-51 21 -63 1 -22 1 -22 14 -5 13 17 17 15 54 -25 22 -24 40 -44 39 -45 -1 0
-27 4 -58 10 -41 9 -55 16 -52 27 3 10 -1 8 -11 -4 -9 -11 -16 -25 -16 -30 1
-12 63 -61 130 -101 l46 -27 -26 -31 c-14 -16 -72 -80 -130 -140 -58 -61 -91
-100 -73 -88 18 12 77 70 133 129 l101 107 -20 -52 c-54 -138 -93 -223 -100
-218 -4 2 -7 -4 -7 -13 -1 -9 -4 -25 -9 -34 -4 -10 -3 -18 3 -18 12 0 66 118
152 331 62 156 68 165 85 153 10 -8 63 -29 118 -46 l99 -33 33 40 c19 22 36
37 38 35 28 -32 65 -95 61 -102 -10 -16 23 -54 69 -78 l45 -24 -22 -35 c-13
-20 -44 -76 -71 -126 -26 -49 -52 -96 -58 -102 -6 -9 -6 -13 1 -13 6 0 25 26
43 58 17 31 46 72 63 91 34 36 135 115 141 109 6 -6 73 -152 93 -203 14 -35
25 -50 38 -50 13 0 19 8 20 25 2 40 3 41 24 30 11 -6 18 -15 15 -20 -6 -10 38
1 86 23 39 17 220 69 329 94 42 9 66 19 55 21 -11 2 -29 12 -40 22 -21 20 -74
44 -88 41 -5 -1 -6 3 -3 8 8 13 -26 23 -50 16 -12 -4 -9 0 6 9 36 22 57 20 64
-9 8 -30 52 -40 136 -32 64 7 90 17 139 52 22 17 47 25 73 25 35 0 40 -3 54
-35 9 -22 25 -40 42 -46 53 -21 219 16 261 57 52 52 102 51 115 -1 9 -35 41
-45 152 -45 75 0 103 4 134 20 44 22 66 18 76 -13 3 -12 12 -29 19 -37 14 -17
24 -77 24 -157 1 -42 4 -53 17 -53 14 0 15 8 9 57 -5 32 -9 67 -10 78 -1 11
-6 38 -12 60 -18 64 -24 113 -13 120 6 4 7 -1 3 -11 -4 -10 -2 -15 4 -11 16
10 35 114 28 150 -4 17 -16 46 -26 63 -10 17 -19 41 -19 52 0 31 -76 326 -93
359 -7 15 -24 87 -36 158 -24 139 -39 179 -101 265 -21 30 -39 58 -39 63 -1 4
18 7 42 7 40 0 49 -5 103 -60 32 -33 66 -60 75 -60 10 0 23 15 32 38 13 33 78
256 106 368 14 51 46 94 72 94 17 0 19 -5 13 -42 -3 -24 -13 -72 -21 -108 -51
-228 -56 -290 -20 -290 12 0 26 23 128 220 66 129 134 210 174 210 14 0 25 5
25 10 0 6 -9 10 -20 10 -26 0 -96 -63 -130 -117 -31 -48 -26 -51 -90 69 l-36
67 -34 -17 c-19 -9 -40 -28 -47 -41 l-12 -25 -7 28 c-3 15 -4 52 -2 82 4 50 3
55 -14 51 -10 -3 -25 1 -33 10 -15 15 -40 9 -30 -7 7 -11 -28 -152 -56 -223
-11 -29 -42 -97 -69 -152 l-49 -100 -55 0 c-30 0 -58 -3 -61 -7 -4 -4 2 -21
13 -39 l20 -32 -22 -25 c-65 -78 -94 -106 -135 -129 -25 -15 -55 -33 -66 -42
-11 -9 -5 1 12 21 80 94 137 197 147 263 l6 40 -17 -46 c-10 -26 -24 -54 -31
-62 -8 -9 -10 -22 -6 -29 4 -7 4 -10 -1 -6 -4 4 -25 -6 -45 -22 -21 -17 -41
-30 -44 -30 -3 0 12 24 34 53 61 80 150 316 150 398 0 19 8 29 28 37 27 12 27
12 5 -4 -27 -19 -29 -45 -7 -79 17 -27 22 -45 23 -92 1 -22 5 -31 14 -27 10 3
12 -11 11 -61 -2 -36 1 -65 6 -65 14 0 108 199 134 285 55 180 54 174 39 179
-8 3 -12 2 -9 -3 5 -8 -25 -40 -51 -55 -15 -8 32 114 52 133 11 12 17 12 29 1
13 -10 19 -10 31 0 8 6 19 9 24 6 6 -4 21 15 35 41 21 40 25 44 26 23 0 -14 3
-36 7 -50 6 -23 5 -24 -11 -11 -9 8 -18 12 -21 10 -2 -3 4 -10 14 -16 15 -9
23 -9 37 2 11 8 14 14 7 15 -19 0 -16 94 5 170 l19 64 6 -39 c4 -22 7 -78 8
-125 0 -47 4 -75 7 -62 10 34 -7 344 -20 370 l-12 23 -17 -33 c-10 -19 -20
-70 -23 -123 -7 -85 -6 -89 10 -70 16 20 16 19 9 -5 -4 -14 -22 -55 -41 -91
-37 -74 -73 -106 -101 -88 -17 10 -16 16 18 85 53 109 104 284 83 284 -5 0
-24 -28 -42 -63 -19 -34 -42 -74 -53 -87 -19 -25 -19 -25 -19 90 0 67 -4 110
-9 105 -5 -6 -19 -53 -31 -105 -11 -52 -27 -108 -35 -125 l-13 -30 -2 40 c-2
39 -2 39 -10 10 -4 -16 -13 -43 -20 -60 -13 -29 -14 -27 -21 50 -27 296 -31
366 -26 453 3 61 0 130 -8 187 l-14 90 4 -80 c3 -44 7 -93 10 -110 4 -24 3
-26 -4 -10 -7 14 -10 -16 -10 -98 -1 -97 -5 -125 -22 -162 -12 -25 -23 -45
-26 -45 -2 0 -1 38 3 84 11 134 -24 116 -42 -21 -4 -29 -11 -53 -16 -53 -5 0
-6 17 -2 38 6 36 6 37 -11 14 -9 -12 -14 -26 -11 -30 2 -4 -6 -9 -19 -10 -22
-2 -24 1 -14 25 5 14 8 28 5 30 -2 2 -12 -16 -21 -41 -10 -25 -27 -53 -39 -63
l-21 -18 19 22 c20 24 20 26 -16 241 l-10 63 -19 -22 c-10 -12 -19 -26 -19
-32 0 -5 -17 -46 -39 -91 -21 -44 -41 -88 -45 -96 -3 -8 -3 -1 1 15 4 17 7 45
7 63 0 20 3 28 8 20 5 -8 8 0 8 22 0 18 -4 30 -8 25 -5 -6 -38 -46 -74 -90
-36 -44 -75 -88 -86 -98 -20 -18 -20 -18 -27 12 -4 17 -12 70 -19 116 -11 76
-11 85 3 85 14 1 14 2 1 13 -12 10 -15 38 -14 142 1 72 6 152 13 179 13 55 8
73 -10 30 -39 -97 -76 -168 -122 -236 -51 -76 -53 -78 -94 -78 -23 0 -45 -5
-49 -11 -5 -8 4 -10 30 -7 20 2 36 2 36 -2 0 -3 -27 -30 -61 -61 -55 -51 -65
-56 -90 -49 -32 9 -39 -3 -11 -19 15 -8 12 -12 -20 -25 -64 -27 -72 -23 -64
32 11 88 35 160 69 214 60 94 70 122 29 78 l-19 -21 3 26 c1 15 6 30 10 33 4
4 4 -1 1 -11 -4 -11 -3 -16 4 -12 6 4 8 13 5 20 -2 7 8 28 23 46 93 114 243
351 303 479 23 49 94 85 151 77 27 -4 36 -2 26 4 -22 14 -87 10 -121 -7 l-31
-16 20 33 c12 19 35 43 52 54 35 23 38 30 14 40 -20 7 -47 -22 -74 -77 -153
-323 -290 -528 -543 -813 -240 -269 -373 -489 -442 -727 -15 -54 -31 -98 -36
-98 -23 0 4 255 42 390 11 41 28 101 36 134 32 128 93 261 188 406 51 80 104
159 117 175 19 23 12 20 -31 -16 -163 -136 -240 -164 -470 -174 l-125 -5 83
33 c46 19 97 48 116 66 23 22 36 29 41 21 14 -23 184 165 243 270 27 48 112
145 112 128 0 -3 24 -1 53 6 l52 11 7 54 c5 41 13 61 40 89 32 34 23 36 -16 3
-18 -15 -19 -15 -13 18 4 18 7 41 7 51 0 9 12 22 26 29 15 6 24 14 21 17 -3 3
-15 1 -26 -6 -18 -9 -21 -8 -21 10 0 25 26 36 136 57 46 10 92 13 109 9 l30
-8 -25 -19 c-14 -10 27 5 90 34 138 65 204 87 259 90 36 1 39 3 26 16 -13 13
-21 13 -72 -3 -32 -10 -99 -36 -149 -57 -74 -32 -104 -39 -155 -39 -35 0 -107
-9 -159 -20 -52 -11 -96 -20 -97 -20 -2 0 -3 34 -3 76 0 70 -11 114 -28 114
-4 0 -23 -10 -42 -21z m50 -4 c0 -8 -8 -15 -18 -15 -10 0 -28 -7 -40 -16 -13
-9 -25 -14 -28 -11 -5 4 66 55 79 56 4 1 7 -6 7 -14z m-520 -765 c0 -23 -47
-99 -67 -109 -17 -8 -36 -3 -92 24 -39 19 -71 37 -71 39 0 3 21 17 48 30 36
19 63 25 115 26 39 0 67 -4 67 -10z m20 -20 c-6 -11 -12 -20 -14 -20 -2 0 -2
9 1 20 3 11 9 20 15 20 5 0 4 -9 -2 -20z m-15 -124 c-11 -7 -31 -17 -45 -21
-22 -7 -23 -6 -12 8 12 14 29 20 67 26 5 0 1 -5 -10 -13z m353 -20 c-10 -7
-15 -16 -11 -19 3 -4 1 -7 -5 -7 -6 0 -19 -15 -28 -32 -9 -18 -40 -58 -68 -89
-201 -218 -221 -247 -269 -387 -45 -131 -67 -168 -113 -187 -20 -8 -38 -15
-39 -15 -2 0 28 52 66 115 90 150 121 206 117 210 -2 3 -41 -57 -86 -133 -45
-75 -85 -142 -90 -148 -4 -6 -23 -15 -42 -19 -29 -6 -33 -5 -23 7 31 36 -39
52 -142 30 l-50 -10 24 19 c13 11 22 21 20 23 -2 2 -40 -2 -84 -10 -89 -14
-185 -18 -185 -6 0 4 28 18 63 31 80 31 183 82 250 125 37 23 74 37 126 46 41
7 102 20 135 30 34 10 68 19 76 21 13 4 80 90 80 104 0 2 -21 -12 -47 -32 -27
-20 -47 -40 -46 -44 2 -5 -5 -5 -14 -2 -10 4 -14 2 -10 -4 14 -23 -217 -73
-338 -73 l-70 0 30 20 c17 11 82 55 146 98 321 213 363 242 351 242 -7 0 -30
-9 -52 -20 -47 -24 -51 -24 -44 -5 3 8 37 21 82 31 43 9 127 38 187 64 105 44
141 53 103 26z m687 -183 c-1 -2 -29 2 -63 8 l-61 11 57 67 57 66 6 -75 c3
-41 5 -76 4 -77z m-455 33 c0 -2 -8 -10 -17 -17 -16 -13 -17 -12 -4 4 13 16
21 21 21 13z m449 -50 c4 -3 14 -47 21 -98 7 -51 30 -145 52 -208 43 -125 46
-143 34 -179 -6 -18 -5 -22 4 -16 9 5 11 4 6 -4 -4 -6 -11 -9 -15 -6 -9 5 -47
-32 -40 -40 9 -8 90 52 181 136 50 46 83 71 73 55 l-19 -29 33 18 c19 9 53 37
77 62 24 25 44 42 44 39 0 -3 -15 -35 -34 -71 -23 -42 -31 -67 -24 -71 6 -4
45 29 87 73 l76 79 27 -15 c27 -15 28 -20 28 -90 0 -54 -3 -72 -12 -68 -7 2
-45 10 -85 17 -67 12 -73 12 -105 -8 -45 -28 -71 -67 -87 -129 -11 -46 -11
-55 3 -75 16 -23 16 -23 10 9 -6 29 -4 31 15 26 24 -6 49 19 52 52 1 16 2 17
6 3 2 -9 -1 -26 -7 -37 -7 -15 -7 -21 0 -21 6 0 13 14 17 30 6 33 18 37 47 15
29 -22 34 -19 47 28 7 23 14 44 15 45 4 6 64 -32 64 -40 0 -13 -24 -63 -39
-81 -26 -31 -3 -30 29 1 39 39 38 22 -3 -75 -19 -43 -46 -110 -61 -150 -52
-137 -145 -193 -459 -279 -142 -39 -168 -37 -239 11 -51 35 -59 31 -12 -6 30
-24 39 -38 39 -62 0 -28 12 -40 115 -119 63 -49 152 -122 197 -163 95 -87 122
-100 43 -20 -49 49 -70 85 -51 85 4 0 20 -15 37 -32 23 -27 24 -29 3 -10 -50
43 -43 21 11 -33 56 -56 93 -66 43 -11 l-28 31 33 -30 34 -30 -48 -42 c-26
-23 -60 -45 -76 -48 -27 -6 -49 -25 -29 -25 9 0 76 17 136 35 16 5 33 -10 84
-70 35 -41 66 -73 69 -70 3 2 -1 13 -9 22 -8 10 8 -4 35 -30 56 -55 72 -55 31
0 -16 21 -20 31 -9 21 28 -24 58 -78 44 -78 -7 0 -29 12 -49 28 -47 35 -124
39 -129 6 -2 -13 -15 -25 -37 -33 -47 -17 -175 -15 -218 3 -28 11 -44 12 -77
4 -29 -8 -61 -8 -108 0 -49 8 -69 8 -80 0 -10 -9 -22 -9 -46 0 -24 9 -41 9
-60 2 -36 -13 -36 -14 -36 14 0 43 -18 76 -41 76 -12 0 -42 -16 -66 -36 l-43
-35 -9 23 c-10 23 -10 23 -10 -3 -1 -22 -7 -28 -33 -33 -26 -5 -42 0 -86 30
-70 46 -101 49 -121 9 -9 -16 -16 -31 -16 -32 -1 -1 -11 0 -23 4 -18 4 -20 8
-11 19 6 8 18 14 25 14 8 0 14 4 14 10 0 10 -27 3 -46 -11 -6 -5 -27 -8 -47
-7 -21 1 -40 -1 -43 -5 -3 -3 -30 14 -60 39 -46 37 -62 44 -97 44 -35 0 -51 7
-91 40 -26 22 -50 40 -51 40 -2 0 -15 -4 -28 -9 -23 -9 -114 3 -129 18 -9 8
34 91 75 146 49 64 139 146 183 166 22 10 76 25 120 33 43 7 122 30 174 50
118 45 145 46 148 8 7 -93 22 -172 36 -188 8 -10 23 -28 32 -39 19 -24 7 0
-17 36 -15 21 -38 151 -39 213 0 6 11 -4 23 -22 22 -30 36 -95 53 -242 6 -54
32 -177 33 -157 1 10 -3 48 -9 85 -5 37 -16 109 -24 160 l-13 93 38 -37 c38
-37 51 -61 27 -49 -19 10 83 -86 133 -125 25 -19 36 -25 25 -12 -20 23 -9 31
12 10 7 -7 12 -8 12 -2 0 6 -10 19 -22 30 -23 21 -138 191 -138 205 0 5 -9 28
-19 52 -23 50 -47 121 -68 197 -12 46 -12 66 -2 117 11 54 15 61 28 50 12 -9
12 -6 -2 13 -58 82 -77 117 -77 139 0 26 1 25 28 -9 56 -73 109 -124 159 -157
67 -43 75 -42 32 5 -64 67 -95 127 -124 237 -17 62 -29 206 -22 237 4 15 35
44 80 76 l75 51 20 -52 21 -52 0 48 c1 26 6 47 11 47 6 0 10 -22 10 -48 0 -87
20 -161 49 -181 56 -40 134 -82 140 -75 3 4 0 9 -6 11 -8 3 0 17 22 37 21 21
35 43 35 57 -1 23 -1 23 -12 4 -22 -41 -52 -65 -80 -65 -35 0 -93 37 -108 69
-6 13 -13 43 -17 67 -5 37 -3 44 11 44 12 0 16 -9 16 -34 0 -19 5 -38 10 -41
6 -4 10 6 10 24 0 67 29 79 31 13 1 -20 3 -28 6 -17 2 11 6 30 9 42 4 19 10
22 37 19 32 -3 32 -4 32 -60 0 -31 1 -56 3 -56 2 0 8 14 14 30 8 25 13 29 25
18 21 -17 34 7 31 53 -3 32 -1 35 14 25 9 -5 30 -33 45 -61 19 -34 28 -45 31
-32 2 9 8 17 13 17 5 0 -5 27 -23 61 -37 69 -73 94 -185 135 -38 13 -74 27
-82 29 -9 4 9 26 54 68 l68 63 64 -8 c35 -4 67 -10 72 -12z m-821 -26 c-7 -10
-14 -17 -17 -15 -4 4 18 35 25 35 2 0 -1 -9 -8 -20z m262 -43 c0 -2 -10 -12
-22 -23 l-23 -19 19 23 c18 21 26 27 26 19z m-5 -200 c1 -194 19 -296 73 -409
l37 -77 -30 23 c-45 35 -122 133 -161 206 -19 36 -31 54 -27 40 3 -14 7 -36 8
-50 0 -14 6 -24 13 -22 7 1 12 -1 13 -5 0 -5 2 -15 3 -23 2 -8 7 -51 10 -95
20 -222 91 -456 191 -625 24 -41 19 -38 -53 36 -146 151 -215 280 -287 538
-27 97 -31 126 -14 126 6 0 8 -9 4 -22 -5 -16 -4 -20 3 -13 6 6 12 55 14 110
3 91 6 107 40 177 41 86 143 247 158 248 3 0 5 -73 5 -163z m-35 149 c0 -2 -8
-10 -17 -17 -16 -13 -17 -12 -4 4 13 16 21 21 21 13z m-410 -30 c0 -2 -8 -10
-17 -17 -16 -13 -17 -12 -4 4 13 16 21 21 21 13z m1618 -98 c-3 -27 -4 -28
-25 -13 -22 15 -22 17 -6 51 17 34 18 34 26 12 4 -12 7 -35 5 -50z m-1058 57
c0 -2 -8 -9 -18 -14 -14 -8 -19 -6 -19 5 0 7 9 14 19 14 10 0 18 -2 18 -5z
m275 -14 c17 -7 16 -8 -9 -13 -15 -3 -40 1 -55 8 l-26 14 35 -1 c19 0 44 -4
55 -8z m599 -33 c-6 -21 -6 -22 12 -8 17 14 18 14 6 -2 -8 -10 -19 -16 -25
-15 -7 1 -12 -6 -12 -17 0 -10 -16 -30 -35 -45 -25 -18 -30 -20 -19 -6 9 11
29 41 44 68 29 51 41 60 29 25z m-648 -10 c-10 -6 -20 -7 -24 -3 -9 8 20 25
31 18 5 -3 2 -10 -7 -15z m405 -15 c-12 -20 -14 -14 -5 12 4 9 9 14 11 11 3
-2 0 -13 -6 -23z m-911 -33 c-6 -11 -13 -20 -16 -20 -2 0 0 9 6 20 6 11 13 20
16 20 2 0 0 -9 -6 -20z m927 -2 c-3 -8 -6 -5 -6 6 -1 11 2 17 5 13 3 -3 4 -12
1 -19z m-34 -13 c-3 -9 -8 -14 -10 -11 -3 3 -2 9 2 15 9 16 15 13 8 -4z m72
-90 c-55 -52 -103 -95 -107 -95 -14 0 -8 30 6 36 8 3 12 13 9 24 -6 24 17 37
32 17 10 -14 20 -8 81 48 38 35 71 64 74 64 3 0 -40 -42 -95 -94z m-55 40 c-6
-15 -13 -26 -15 -23 -3 2 1 19 8 37 6 17 13 28 15 23 1 -5 -2 -22 -8 -37z
m-42 -10 l-14 -26 -12 28 c-11 25 -11 26 2 10 14 -18 15 -17 21 3 4 12 9 19
12 17 2 -3 -2 -17 -9 -32z m-927 -28 c-10 -9 -11 -8 -5 6 3 10 9 15 12 12 3
-3 0 -11 -7 -18z m1209 19 c0 -2 -8 -10 -17 -17 -16 -13 -17 -12 -4 4 13 16
21 21 21 13z m-1404 -51 c-22 -19 -43 -35 -48 -35 -9 0 72 68 82 69 3 0 -13
-15 -34 -34z m177 0 c-3 -9 -8 -14 -10 -11 -3 3 -2 9 2 15 9 16 15 13 8 -4z
m1250 -42 c-7 -2 -19 -2 -25 0 -7 3 -2 5 12 5 14 0 19 -2 13 -5z m167 -3 c0
-5 -2 -10 -4 -10 -3 0 -8 5 -11 10 -3 6 -1 10 4 10 6 0 11 -4 11 -10z m-1412
-75 c0 -16 -2 -15 -8 5 -4 14 -8 34 -8 45 0 16 2 15 8 -5 4 -14 8 -34 8 -45z
m1192 21 c0 -33 -26 -64 -40 -49 -17 16 6 84 26 76 8 -3 14 -15 14 -27z m297
12 c-3 -8 -6 -5 -6 6 -1 11 2 17 5 13 3 -3 4 -12 1 -19z m-1980 -4 c-3 -3 -12
-4 -19 -1 -8 3 -5 6 6 6 11 1 17 -2 13 -5z m131 -28 c-36 -19 -81 -37 -100
-41 -18 -3 -42 -9 -53 -11 -19 -5 -19 -4 -2 9 10 9 13 17 7 19 -5 1 5 8 24 14
27 8 33 8 29 -3 -3 -9 17 -4 63 13 38 14 71 28 73 30 2 2 9 4 15 4 6 -1 -19
-16 -56 -34z m181 -18 c-1 -19 -2 -19 -6 -5 -3 10 -10 17 -16 14 -7 -2 -23 -7
-37 -11 -21 -5 -20 -3 5 9 42 20 55 18 54 -7z m-406 -15 c-7 -2 -21 -2 -30 0
-10 3 -4 5 12 5 17 0 24 -2 18 -5z m-60 -10 c-7 -2 -19 -2 -25 0 -7 3 -2 5 12
5 14 0 19 -2 13 -5z m337 -14 c-27 -21 -71 -47 -55 -32 19 18 68 53 74 53 3 0
-5 -9 -19 -21z m117 -36 c-3 -10 -5 -4 -5 12 0 17 2 24 5 18 2 -7 2 -21 0 -30z
m1672 -99 c-38 -40 -122 -104 -135 -104 -5 0 -4 4 2 8 6 4 19 22 28 40 9 17
19 32 22 32 2 0 0 -9 -6 -21 -20 -37 -4 -30 56 26 68 62 84 72 33 19z m-66 1
c-3 -9 -8 -14 -10 -11 -3 3 -2 9 2 15 9 16 15 13 8 -4z m-1683 -19 c0 -2 -8
-10 -17 -17 -16 -13 -17 -12 -4 4 13 16 21 21 21 13z m1628 -36 c-7 -11 -15
-15 -17 -9 -2 6 3 15 10 20 20 12 21 11 7 -11z m-2034 -5 c-10 -8 -26 -14 -34
-14 -9 0 -4 6 10 14 33 19 49 19 24 0z m560 -13 c-9 -16 -25 -39 -36 -53 -17
-21 -18 -21 -9 -2 6 12 9 28 8 35 -2 7 -2 10 1 5 2 -4 13 4 24 18 26 33 33 32
12 -3z m-377 -38 c-3 -3 -12 -4 -19 -1 -8 3 -5 6 6 6 11 1 17 -2 13 -5z m2340
-123 c17 -27 19 -38 11 -57 l-11 -23 -44 31 c-36 26 -43 36 -38 55 3 13 8 43
12 68 l6 45 22 -42 c12 -24 31 -58 42 -77z m-552 22 c-15 -84 -107 -189 -216
-247 l-54 -29 27 29 c29 31 78 129 78 155 0 9 28 33 65 54 36 21 72 47 82 57
23 26 26 23 18 -19z m365 -25 c-7 -23 -16 -51 -21 -60 -5 -10 -9 -24 -9 -32 0
-15 -39 -147 -67 -223 -8 -24 -19 -43 -24 -43 -6 0 -34 25 -62 57 l-53 56 53
96 c29 53 61 115 71 138 9 24 21 43 26 43 12 0 0 -124 -15 -152 -6 -13 -23
-35 -37 -50 -14 -16 -21 -28 -15 -28 28 0 153 198 153 241 0 7 3 10 6 7 3 -3
0 -26 -6 -50z m-1682 -13 c7 -16 39 -38 88 -63 l76 -38 -57 -22 c-31 -12 -72
-22 -91 -22 -32 0 -34 2 -34 33 0 17 -3 56 -6 85 -7 56 5 70 24 27z m62 9 c22
-9 40 -22 40 -29 0 -7 7 -18 15 -25 25 -20 10 -23 -31 -5 -56 23 -107 75 -74
75 5 0 28 -7 50 -16z m71 -41 c13 -16 12 -17 -3 -4 -10 7 -18 15 -18 17 0 8 8
3 21 -13z m1682 -132 c-49 -93 -69 -119 -80 -108 -7 7 9 117 29 208 l11 47 43
-31 42 -30 -45 -86z m-688 87 c-12 -55 -42 -104 -86 -142 -34 -29 -39 -36 -22
-36 34 0 136 57 196 110 31 29 57 46 57 38 0 -22 -37 -116 -64 -161 -47 -80
-47 -80 -102 -72 -41 6 -57 15 -97 57 -39 39 -47 54 -42 71 20 66 20 67 -23
67 -56 0 -62 17 -10 30 24 6 77 23 118 39 41 16 76 29 78 30 2 0 0 -14 -3 -31z
m-1166 -10 c0 -13 -3 -17 -6 -10 -2 6 -10 9 -16 5 -7 -4 -6 1 2 10 18 22 21
21 20 -5z m-214 -18 c-3 -5 -12 -10 -18 -10 -7 0 -6 4 3 10 19 12 23 12 15 0z
m225 -18 c0 -5 -16 -16 -35 -25 -44 -21 -45 -15 -2 12 37 24 37 24 37 13z
m973 -46 c17 -13 17 -16 -3 -70 -12 -31 -26 -56 -32 -56 -16 0 -162 52 -172
61 -6 5 2 9 20 10 28 1 27 1 -14 21 -24 11 -42 22 -39 24 5 5 140 21 192 22
17 1 38 -5 48 -12z m51 -123 l29 -32 -36 11 c-23 7 -33 16 -30 24 3 8 0 14 -6
14 -6 0 -8 7 -4 16 3 8 8 12 12 7 3 -4 19 -22 35 -40z m-1414 -74 c-44 -50
-80 -95 -80 -100 0 -18 -53 -89 -85 -113 l-33 -25 -4 24 c-3 13 -2 23 1 20 4
-2 17 24 31 58 29 76 102 152 186 196 32 16 60 30 62 31 1 0 -34 -41 -78 -91z
m1255 71 c17 -8 32 -17 35 -20 3 -3 23 -17 46 -32 35 -22 56 -58 34 -58 -13 0
-30 27 -22 35 4 5 2 6 -3 2 -6 -3 -40 17 -75 45 -36 28 -60 49 -55 47 6 -3 24
-11 40 -19z m538 -33 c-23 -41 -94 -114 -147 -151 -51 -37 -165 -96 -184 -96
-10 0 44 37 114 78 45 26 97 69 140 116 38 40 72 72 77 69 4 -2 4 -10 0 -16z
m-968 -42 c33 -30 56 -55 50 -55 -5 0 -37 25 -70 55 -33 30 -55 54 -50 54 6 0
37 -24 70 -54z m614 33 c58 -12 108 -23 110 -25 3 -2 -11 -17 -30 -34 l-34
-30 62 31 c37 17 64 26 68 20 5 -9 -71 -110 -83 -110 -2 0 -32 24 -65 53 -34
29 -82 68 -106 85 -25 18 -41 32 -36 32 4 0 56 -10 114 -22z m221 15 c-1 -14
-30 -47 -36 -41 -3 3 3 16 13 27 19 23 23 25 23 14z m204 -107 c12 -62 24
-154 24 -171 0 -20 22 -103 37 -137 6 -14 2 -18 -18 -18 -18 0 -28 8 -37 30
-7 17 -17 30 -22 30 -20 0 -48 -22 -61 -46 l-14 -26 -70 88 c-39 49 -82 100
-96 113 l-26 23 58 39 c31 21 65 47 76 58 10 12 24 21 31 21 13 0 84 -77 84
-91 0 -14 42 -80 48 -75 8 9 -76 143 -103 164 l-24 19 27 35 27 35 28 -35 c15
-20 29 -45 31 -56z m-2053 -89 c-10 -9 -11 -8 -5 6 3 10 9 15 12 12 3 -3 0
-11 -7 -18z m1751 -44 c-6 -2 -9 -10 -6 -15 4 -7 2 -8 -5 -4 -13 9 -5 26 12
25 9 0 8 -2 -1 -6z m48 -28 c13 -14 21 -25 18 -25 -2 0 -15 11 -28 25 -13 14
-21 25 -18 25 2 0 15 -11 28 -25z m-1660 -5 c30 -6 68 -8 83 -4 22 5 37 -1 72
-30 28 -24 54 -36 74 -36 43 0 75 -14 120 -56 33 -29 46 -35 67 -30 15 4 44 0
69 -10 52 -19 57 -35 56 -149 -2 -106 9 -122 69 -104 26 8 58 29 80 51 24 25
42 37 53 33 8 -4 25 -1 37 5 19 10 26 8 54 -18 17 -17 49 -40 70 -52 39 -21
40 -21 54 -3 10 13 12 35 8 78 -9 90 -8 109 11 123 20 15 67 16 93 2 14 -7 25
-7 39 2 15 9 34 9 85 0 36 -7 73 -15 83 -18 15 -5 15 -4 4 4 -30 21 38 26 91
7 48 -17 152 -17 220 0 21 6 27 3 33 -14 3 -12 17 -33 29 -49 13 -15 33 -55
46 -89 33 -92 44 -97 91 -43 22 25 39 50 39 55 0 21 56 12 96 -16 50 -34 60
-35 73 -10 12 21 -13 108 -44 155 -16 24 -16 26 -1 32 20 8 42 -10 49 -39 3
-12 12 -47 20 -77 7 -30 20 -82 27 -115 6 -33 23 -90 36 -127 16 -48 20 -68
11 -68 -8 0 -7 -3 3 -10 14 -8 17 -77 4 -90 -3 -3 -4 13 -3 34 7 74 -34 58
-112 -43 -52 -69 -53 -70 -108 -75 -65 -7 -153 4 -158 20 -2 6 15 19 37 29 59
27 66 39 34 64 -32 25 -43 26 -156 4 l-89 -17 6 -37 c8 -44 3 -48 -79 -65
-135 -29 -229 -9 -168 37 14 11 15 11 5 -1 -27 -30 -11 -30 27 0 22 17 40 36
40 42 0 7 -5 6 -14 -1 -11 -9 -14 -8 -12 5 2 24 -70 45 -159 46 -54 1 -80 -4
-113 -21 -23 -12 -42 -26 -42 -32 0 -6 -4 -7 -10 -4 -5 3 -10 2 -10 -4 0 -13
53 -41 77 -41 12 0 14 -3 6 -11 -14 -14 -139 -31 -180 -23 -31 6 -33 8 -18 24
41 45 -38 85 -153 78 -131 -9 -189 -50 -129 -91 19 -14 20 -18 7 -27 -8 -6
-39 -9 -69 -7 -44 3 -58 9 -70 27 -47 71 -203 210 -235 210 -45 0 -62 -58 -32
-115 9 -18 12 -33 6 -39 -12 -12 -79 24 -99 54 -12 17 -12 22 -2 16 18 -12
-56 105 -81 127 -11 9 -34 17 -50 17 -30 0 -31 0 -25 -44 4 -24 4 -46 1 -49
-3 -3 -42 7 -88 23 -154 52 -174 72 -111 112 19 13 35 26 35 29 0 4 -29 18
-64 33 -97 38 -246 48 -246 15 0 -6 5 -7 12 -3 7 4 8 3 4 -5 -4 -6 -2 -19 5
-27 6 -8 9 -17 6 -20 -3 -3 -15 12 -26 34 l-20 40 28 38 c66 92 393 378 420
369 9 -2 41 -9 71 -15z m1660 -45 c13 -14 21 -25 18 -25 -2 0 -15 11 -28 25
-13 14 -21 25 -18 25 2 0 15 -11 28 -25z m-705 -278 c4 -15 4 -38 1 -52 -6
-23 -8 -24 -34 -13 -37 17 -92 58 -92 70 0 6 8 4 18 -3 15 -13 16 -12 3 4 -8
9 -16 15 -19 12 -3 -3 -11 0 -18 6 -13 11 -8 43 6 34 15 -9 62 15 67 34 3 11
11 22 18 25 10 3 15 -14 21 -67 4 -40 9 -64 12 -54 2 9 -1 47 -7 82 -5 36 -7
82 -3 103 5 29 8 18 13 -58 3 -52 10 -107 14 -123z m-305 168 c29 -15 40 -35
20 -35 -10 0 -50 -72 -50 -90 0 -7 15 -2 34 10 l35 21 6 -35 c6 -28 2 -41 -20
-70 -26 -34 -97 -68 -111 -53 -3 3 -5 33 -5 66 2 73 2 74 -5 133 -5 44 -4 49
17 57 34 14 46 13 79 -4z m1071 -55 c46 -27 87 -51 91 -52 3 -2 9 -14 13 -28
7 -29 -45 -120 -68 -120 -8 0 -28 30 -45 68 -17 37 -40 78 -52 92 -18 23 -39
90 -28 90 3 0 43 -22 89 -50z m-957 -46 c7 -19 24 -18 29 4 2 9 3 4 0 -13 -5
-41 -24 -58 -56 -49 -25 6 -27 10 -27 55 l0 49 24 -15 c13 -9 27 -23 30 -31z
m1106 -56 c0 -20 -28 -5 -33 17 -4 25 -4 25 14 9 11 -9 19 -21 19 -26z m-107
-372 c3 -7 0 -19 -6 -25 -8 -8 -8 -11 1 -11 7 0 15 7 18 15 6 15 24 21 24 7 0
-18 -40 -32 -60 -22 -11 6 -20 7 -19 3 1 -4 1 -15 -1 -23 -1 -11 -4 -9 -10 5
-14 32 -11 53 8 58 31 8 40 7 45 -7z m-670 -23 c-36 -18 -43 -33 -15 -33 9 0
24 -5 32 -11 11 -8 6 -9 -20 -5 -52 9 -57 22 -19 45 19 12 39 21 44 20 6 0 -5
-8 -22 -16z m-799 -41 c6 -10 -94 -126 -101 -119 -8 9 74 125 89 126 4 1 9 -3
12 -7z m103 -148 c-4 -4 -67 121 -67 133 1 4 17 -23 36 -61 19 -37 34 -70 31
-72z m-87 122 c0 -2 -8 -10 -17 -17 -16 -13 -17 -12 -4 4 13 16 21 21 21 13z
m146 -264 c-6 -5 -39 67 -49 108 -4 14 7 -4 24 -39 16 -35 28 -66 25 -69z"/>
<path d="M775 2353 c-55 -25 -118 -52 -140 -59 -34 -11 -36 -13 -13 -13 53 -2
188 49 226 84 21 19 35 34 32 34 -3 0 -50 -21 -105 -46z"/>
<path d="M1960 2397 c0 -20 -6 -30 -20 -34 -23 -6 -27 -23 -6 -23 26 0 50 48
35 71 -6 10 -9 6 -9 -14z"/>
<path d="M2600 2112 c0 -20 -68 -84 -82 -77 -7 4 -2 -2 11 -13 l25 -20 14 26
c37 68 44 84 38 89 -3 4 -6 1 -6 -5z"/>
<path d="M1961 1973 c7 -12 15 -20 18 -17 3 2 -3 12 -13 22 -17 16 -18 16 -5
-5z"/>
<path d="M1990 1919 c0 -5 9 -9 20 -9 11 0 20 2 20 4 0 2 -9 6 -20 9 -11 3
-20 1 -20 -4z"/>
<path d="M2265 1850 c-13 -6 -15 -9 -5 -9 8 0 22 4 30 9 18 12 2 12 -25 0z"/>
<path d="M1512 1330 c0 -25 3 -70 8 -100 6 -47 7 -49 8 -15 0 22 -4 67 -8 100
-6 55 -7 56 -8 15z"/>
<path d="M2173 1308 c-18 -6 -33 -15 -33 -19 0 -10 58 10 66 22 3 5 4 9 2 8
-2 -1 -18 -6 -35 -11z"/>
<path d="M1814 1251 c7 -11 46 -35 46 -28 0 3 -12 12 -26 22 -15 9 -23 12 -20
6z"/>
<path d="M1930 1176 c0 -2 8 -10 18 -17 15 -13 16 -12 3 4 -13 16 -21 21 -21
13z"/>
<path d="M1533 1130 c0 -25 2 -35 4 -22 2 12 2 32 0 45 -2 12 -4 2 -4 -23z"/>
<path d="M1612 1095 c0 -16 4 -41 8 -55 l8 -25 0 25 c0 14 -4 39 -8 55 l-8 30
0 -30z"/>
<path d="M2038 1113 c7 -3 16 -2 19 1 4 3 -2 6 -13 5 -11 0 -14 -3 -6 -6z"/>
<path d="M2133 1103 c15 -2 37 -2 50 0 12 2 0 4 -28 4 -27 0 -38 -2 -22 -4z"/>
<path d="M1542 1050 c0 -19 2 -27 5 -17 2 9 2 25 0 35 -3 9 -5 1 -5 -18z"/>
<path d="M2254 1072 c7 -12 156 -115 160 -111 2 2 -35 30 -81 62 -47 32 -82
54 -79 49z"/>
<path d="M1552 990 c0 -14 2 -19 5 -12 2 6 2 18 0 25 -3 6 -5 1 -5 -13z"/>
<path d="M1480 2259 c0 -20 30 -93 35 -87 2 2 -2 27 -7 56 -11 52 -28 71 -28
31z"/>
<path d="M976 991 l-30 -36 34 32 c19 18 32 34 29 36 -2 2 -17 -12 -33 -32z"/>
<path d="M975 939 c-4 -6 -5 -12 -2 -15 2 -3 7 2 10 11 7 17 1 20 -8 4z"/>
<path d="M1865 919 c-4 -6 -5 -12 -2 -15 2 -3 7 2 10 11 7 17 1 20 -8 4z"/>
<path d="M955 899 c-4 -6 -5 -12 -2 -15 2 -3 7 2 10 11 7 17 1 20 -8 4z"/>
<path d="M1852 850 c0 -14 2 -19 5 -12 2 6 2 18 0 25 -3 6 -5 1 -5 -13z"/>
<path d="M1185 818 l-16 -33 20 25 c20 24 26 40 16 40 -2 0 -12 -15 -20 -32z"/>
<path d="M916 823 c-6 -14 -5 -15 5 -6 7 7 10 15 7 18 -3 3 -9 -2 -12 -12z"/>
<path d="M877 744 c-37 -74 -33 -83 4 -10 17 32 29 60 27 62 -2 2 -16 -21 -31
-52z"/>
<path d="M1135 730 c-14 -27 -23 -50 -20 -50 2 0 16 23 30 50 14 28 23 50 20
50 -2 0 -16 -22 -30 -50z"/>
<path d="M1546 743 c-6 -14 -5 -15 5 -6 7 7 10 15 7 18 -3 3 -9 -2 -12 -12z"/>
<path d="M696 723 c-6 -14 -5 -15 5 -6 7 7 10 15 7 18 -3 3 -9 -2 -12 -12z"/>
<path d="M668 669 c-9 -16 -14 -29 -9 -29 8 0 34 50 29 56 -2 1 -11 -11 -20
-27z"/>
<path d="M1057 573 c-4 -3 -7 -11 -7 -17 0 -6 5 -5 12 2 6 6 9 14 7 17 -3 3
-9 2 -12 -2z"/>
<path d="M2652 485 c0 -16 2 -22 5 -12 2 9 2 23 0 30 -3 6 -5 -1 -5 -18z"/>
<path d="M1363 390 c0 -25 2 -35 4 -22 2 12 2 32 0 45 -2 12 -4 2 -4 -23z"/>
<path d="M2323 3583 c20 -21 37 -45 37 -52 0 -9 7 -11 23 -6 12 5 39 8 59 9
27 0 34 3 27 12 -6 7 -5 15 5 23 18 15 39 6 52 -22 5 -12 14 -21 20 -20 5 1
10 -7 11 -17 2 -17 0 -17 -35 3 -19 12 -33 16 -29 10 4 -7 26 -22 48 -35 42
-23 80 -84 109 -171 6 -21 14 -36 16 -34 3 3 -7 40 -21 83 -32 98 -106 238
-127 242 -9 2 -31 -10 -50 -25 -30 -26 -88 -58 -93 -51 -35 52 -50 70 -68 79
-15 8 -9 -2 16 -28z"/>
<path d="M2425 3600 c-3 -5 -12 -7 -20 -3 -8 3 -15 0 -15 -5 0 -21 18 -21 35
-2 10 11 15 20 12 20 -3 0 -8 -4 -12 -10z"/>
<path d="M2394 3504 c-19 -15 -19 -16 1 -9 45 16 56 17 70 5 13 -11 14 -10 9
4 -8 21 -54 21 -80 0z"/>
<path d="M2346 3415 c-9 -26 -7 -32 5 -12 6 10 9 21 6 23 -2 3 -7 -2 -11 -11z"/>
<path d="M3138 3151 c-20 -16 -28 -17 -38 -8 -18 17 -12 6 85 -140 44 -68 105
-162 135 -209 33 -51 67 -92 84 -101 25 -13 21 -5 -25 47 -31 34 -82 105 -115
158 -57 94 -59 99 -64 182 -6 94 -16 107 -62 71z"/>
<path d="M3006 3067 c3 -10 9 -15 12 -12 3 3 0 11 -7 18 -10 9 -11 8 -5 -6z"/>
<path d="M1599 3033 c-13 -16 -12 -17 4 -4 9 7 17 15 17 17 0 8 -8 3 -21 -13z"/>
<path d="M3104 2905 c2 -11 14 -51 25 -90 31 -102 51 -256 52 -396 1 -68 4
-110 8 -93 4 18 22 44 46 65 52 45 71 67 91 109 16 31 16 36 1 62 -9 15 -14
28 -11 28 9 0 97 -52 157 -93 31 -22 60 -37 63 -34 8 8 -6 28 -16 22 -4 -3
-14 3 -21 12 -12 15 -12 16 4 10 9 -3 17 -3 17 1 -1 11 -27 43 -37 43 -4 1
-10 3 -13 6 -3 4 1 3 8 -1 19 -11 14 7 -17 55 -26 42 -34 47 -102 67 -41 12
-87 24 -102 28 -23 5 -52 41 -42 52 1 1 26 -9 56 -22 65 -29 108 -42 94 -29
-5 5 -31 18 -58 27 -26 10 -71 34 -100 54 -28 20 -53 35 -55 33 -2 -1 -7 1
-10 5 -4 4 -1 4 6 0 14 -9 17 10 2 19 -6 3 -19 23 -31 43 -11 20 -18 28 -15
17z"/>
<path d="M740 2740 l-25 -8 25 0 c14 0 36 4 50 8 l25 8 -25 0 c-14 0 -36 -4
-50 -8z"/>
<path d="M2753 2685 c0 -27 2 -38 4 -22 2 15 2 37 0 50 -2 12 -4 0 -4 -28z"/>
<path d="M2891 2564 c0 -11 3 -14 6 -6 3 7 2 16 -1 19 -3 4 -6 -2 -5 -13z"/>
<path d="M3096 2515 c-9 -26 -7 -32 5 -12 6 10 9 21 6 23 -2 3 -7 -2 -11 -11z"/>
<path d="M3163 2204 c-6 -38 -14 -78 -19 -88 -5 -13 -4 -17 3 -13 12 8 37 139
31 158 -2 7 -9 -19 -15 -57z"/>
<path d="M2993 2034 c-3 -8 -1 -20 5 -26 8 -8 9 -4 5 12 -5 19 -3 22 11 17 10
-4 15 -3 11 3 -9 15 -25 12 -32 -6z"/>
<path d="M2956 2031 c-3 -4 1 -17 8 -27 13 -17 14 -17 9 9 -6 29 -9 32 -17 18z"/>
<path d="M3055 1975 c10 -8 25 -28 31 -43 l12 -27 1 26 c1 28 -11 41 -44 52
-20 7 -20 7 0 -8z"/>
<path d="M3338 1773 c-20 -43 -50 -102 -67 -131 -17 -29 -31 -58 -30 -65 0 -7
5 -2 11 10 9 18 16 21 37 16 25 -6 25 -5 9 13 -16 18 -14 24 33 118 27 54 48
103 47 108 -2 5 -20 -26 -40 -69z"/>
<path d="M3226 1544 c-4 -9 -4 -19 -1 -22 2 -3 7 3 11 12 4 9 4 19 1 22 -2 3
-7 -3 -11 -12z"/>
<path d="M3199 1476 c-7 -20 -21 -39 -31 -42 -21 -6 -68 -54 -68 -68 0 -4 -15
-29 -34 -55 -54 -74 -58 -87 -38 -102 15 -12 15 -12 6 1 -10 12 0 33 47 105
58 88 88 114 135 115 12 0 26 -10 32 -22 11 -20 12 -21 9 -3 -1 11 -14 26 -29
33 -24 11 -26 16 -17 39 5 14 8 28 5 30 -2 3 -10 -12 -17 -31z"/>
<path d="M3283 1348 c23 -20 26 -30 22 -58 -4 -29 -3 -31 4 -10 15 41 13 48
-21 70 l-33 22 28 -24z"/>
<path d="M3181 1281 c-21 -28 -40 -48 -43 -46 -2 2 -14 -6 -28 -17 l-25 -20
28 16 c33 20 33 17 6 -28 -12 -20 -19 -36 -16 -36 3 0 16 17 28 38 13 20 43
61 67 90 24 28 39 52 33 52 -6 0 -28 -22 -50 -49z"/>
<path d="M636 1233 c-6 -14 -5 -15 5 -6 7 7 10 15 7 18 -3 3 -9 -2 -12 -12z"/>
<path d="M3183 1142 c-25 -33 -79 -43 -86 -15 -4 14 -5 13 -6 -4 -1 -20 4 -23
32 -23 31 0 60 20 81 58 13 22 0 13 -21 -16z"/>
<path d="M3235 1100 c-9 -16 -13 -30 -11 -30 3 0 12 14 21 30 9 17 13 30 11
30 -3 0 -12 -13 -21 -30z"/>
<path d="M3206 1043 c-6 -14 -5 -15 5 -6 7 7 10 15 7 18 -3 3 -9 -2 -12 -12z"/>
<path d="M3164 978 c-23 -36 -28 -54 -29 -104 0 -58 6 -73 107 -275 109 -219
155 -324 190 -439 11 -36 24 -69 29 -74 16 -17 23 3 10 30 -11 26 -11 26 26
-5 36 -30 41 -31 137 -31 90 0 97 1 85 17 -8 9 -12 19 -10 22 2 3 -49 48 -115
99 -65 50 -149 119 -186 153 l-68 60 30 26 c32 26 32 43 -1 43 -22 0 -23 4 -8
31 9 18 12 19 27 6 38 -33 302 -147 341 -147 5 0 9 31 10 68 2 76 -5 87 -89
135 -95 54 -347 136 -371 121 -4 -2 -27 16 -51 42 -45 48 -61 73 -37 59 7 -5
-2 10 -20 33 -32 39 -33 43 -21 74 7 18 22 48 32 66 28 46 16 40 -18 -10z m12
-155 c-7 -7 -26 7 -26 19 0 6 6 6 15 -2 9 -7 13 -15 11 -17z m135 -146 c50
-69 51 -74 29 -80 -16 -4 -22 2 -31 36 -6 23 -16 48 -21 55 -6 6 -7 12 -2 12
5 0 16 -11 25 -23z m-67 -33 c3 -8 2 -12 -4 -9 -6 3 -10 10 -10 16 0 14 7 11
14 -7z m20 -40 c3 -8 2 -12 -4 -9 -6 3 -10 10 -10 16 0 14 7 11 14 -7z"/>
<path d="M3230 805 c0 -9 141 -76 265 -126 65 -27 146 -65 180 -84 33 -20 49
-26 35 -14 -33 28 -110 67 -250 124 -63 26 -141 60 -172 76 -32 16 -58 27 -58
24z"/>
<path d="M3235 760 c21 -22 40 -38 42 -36 6 6 -60 76 -71 76 -6 0 7 -18 29
-40z"/>
<path d="M2818 313 c7 -3 16 -2 19 1 4 3 -2 6 -13 5 -11 0 -14 -3 -6 -6z"/>
<path d="M2170 200 c-157 -21 -441 -77 -454 -90 -4 -4 0 -7 10 -7 11 1 18 -4
16 -10 -1 -10 24 -13 105 -12 100 1 106 2 78 14 -16 8 -36 14 -42 15 -7 0 -13
4 -13 8 0 9 210 49 430 81 105 16 116 19 65 19 -33 0 -121 -8 -195 -18z"/>
<path d="M2270 90 c-47 -3 64 -6 245 -6 229 0 293 2 210 6 -145 9 -339 9 -455
0z"/>
</g>
</svg>
