<?xml version="1.0" standalone="no"?>
<!DOCTYPE svg PUBLIC "-//W3C//DTD SVG 20010904//EN"
 "http://www.w3.org/TR/2001/REC-SVG-20010904/DTD/svg10.dtd">
<svg version="1.0" xmlns="http://www.w3.org/2000/svg"
 width="215.000000pt" height="218.000000pt" viewBox="0 0 215.000000 218.000000"
 preserveAspectRatio="xMidYMid meet">

<g transform="translate(0.000000,218.000000) scale(0.100000,-0.100000)"
fill="#000000" stroke="none">
<path d="M968 1776 c-22 -30 -67 -39 -186 -37 l-93 2 -88 -89 c-79 -80 -91
-88 -104 -75 -8 8 -36 18 -63 21 -55 6 -74 -11 -74 -64 0 -18 -4 -36 -10 -39
-12 -8 -13 -52 -1 -59 4 -3 11 -35 14 -71 l6 -67 -69 -68 c-39 -38 -70 -77
-70 -87 0 -10 14 -30 32 -44 l31 -26 -29 -48 c-16 -26 -35 -58 -42 -71 -17
-31 -132 -134 -149 -134 -23 0 -10 -33 17 -48 16 -8 52 -12 102 -10 l78 3 0
-65 c0 -62 -2 -68 -35 -100 -19 -19 -35 -37 -35 -42 0 -10 -51 -61 -74 -73
-10 -5 -29 -24 -42 -41 l-24 -31 24 -26 c19 -20 37 -27 90 -32 36 -4 66 -9 66
-11 0 -2 -6 -13 -12 -24 -23 -36 27 -57 123 -51 33 2 39 -2 72 -51 21 -29 37
-57 37 -61 0 -4 -29 -7 -65 -7 -57 0 -65 2 -65 19 0 11 -12 33 -26 50 -22 27
-32 31 -74 31 -74 0 -109 -10 -141 -42 -28 -29 -39 -71 -20 -82 5 -4 12 -24
16 -45 10 -60 34 -76 112 -73 57 1 70 5 95 29 15 14 30 41 34 59 l6 32 76 4
c43 2 278 1 523 -1 l445 -3 10 -31 c12 -41 83 -81 130 -74 41 7 103 52 115 84
8 22 13 23 104 23 52 0 95 3 95 7 0 3 -6 14 -14 22 -23 27 -26 55 -8 77 17 19
22 20 68 11 86 -17 106 6 59 67 -14 18 -25 36 -25 39 0 4 18 7 40 7 32 0 40 4
40 18 0 11 -9 27 -20 37 -38 35 -25 42 80 50 117 8 123 16 62 86 -71 81 -141
231 -167 359 -10 47 -22 89 -26 94 -5 6 -9 21 -9 34 0 42 -40 226 -57 262 -12
24 -17 65 -18 135 -3 158 -13 175 -108 162 -38 -5 -47 -2 -97 38 -98 76 -215
123 -330 131 -41 3 -82 8 -90 11 -18 6 -60 11 -155 18 -65 5 -71 4 -87 -19z
m185 -21 c82 -17 172 -63 220 -113 34 -36 35 -38 26 -82 -24 -111 -29 -149
-23 -205 l5 -60 -34 75 c-50 112 -95 177 -175 252 -103 97 -138 102 -185 25
-16 -26 -30 -62 -31 -79 -1 -30 1 -31 55 -44 81 -19 217 -85 266 -130 46 -43
87 -118 102 -186 11 -52 7 -47 -70 77 -27 43 -49 76 -49 73 0 -4 21 -48 46
-98 25 -50 44 -94 41 -96 -16 -16 -154 52 -188 92 -11 13 -9 14 17 8 16 -4 38
-11 49 -16 20 -9 20 -9 1 6 -11 9 -35 19 -54 22 -21 4 -37 14 -42 28 -7 17 -9
18 -9 4 -1 -14 -10 -18 -38 -18 -21 0 -45 -5 -53 -10 -11 -7 0 -10 38 -10 l52
0 0 -52 c-1 -71 -15 -131 -43 -173 -25 -40 -37 -43 -62 -15 -22 25 -45 26 -45
2 0 -15 -65 -122 -74 -122 -5 0 -22 108 -31 193 -4 31 -11 57 -17 57 -14 0 -2
-144 18 -211 26 -86 -1 -92 -65 -14 -53 64 -80 138 -88 237 -5 72 -4 78 13 79
11 0 13 3 7 6 -17 6 -16 61 2 113 17 49 18 60 6 60 -10 0 -31 -77 -31 -117 0
-15 -5 -35 -10 -43 -9 -13 -11 -13 -20 0 -5 8 -10 10 -10 4 0 -6 -22 -25 -50
-43 -27 -18 -53 -37 -57 -44 -4 -7 5 -4 20 6 15 9 27 15 27 11 0 -4 -23 -47
-51 -96 -55 -95 -78 -108 -90 -53 -14 65 -9 117 19 182 34 82 93 144 192 202
157 92 152 88 136 119 -18 36 -91 102 -111 102 -23 0 -109 -84 -151 -148 -53
-78 -99 -195 -120 -298 -25 -122 -25 -388 0 -539 16 -95 64 -318 83 -380 5
-17 1 -16 -33 9 -70 52 -116 100 -135 141 -22 50 -46 189 -55 318 -7 92 -8 97
-25 82 -24 -23 -107 -46 -135 -39 -23 6 -23 7 13 33 84 61 142 154 183 291 27
91 134 314 186 390 63 92 117 151 162 177 43 25 44 25 137 13 66 -9 95 -17 95
-26 0 -24 -38 -37 -72 -25 -17 6 -33 9 -36 6 -6 -6 51 -73 63 -74 6 -1 26 25
44 57 66 113 77 122 129 122 26 0 77 -7 115 -15z m249 -31 c77 -24 179 -77
238 -123 l24 -19 -37 -41 -37 -41 -20 41 c-24 46 -72 79 -116 79 -21 0 -39 10
-59 30 -16 17 -51 45 -77 61 -27 17 -48 33 -48 35 0 11 58 1 132 -22z m479
-624 c28 -147 75 -318 104 -378 14 -29 25 -54 25 -58 0 -8 60 -95 92 -132 15
-18 28 -37 28 -42 0 -40 -91 45 -142 134 -52 88 -79 173 -112 351 -15 77 -35
178 -46 225 -21 90 -25 132 -12 144 8 9 35 -93 63 -244z m-433 113 c18 -8 42
-11 52 -8 17 6 18 3 5 -44 -7 -28 -13 -82 -13 -119 l1 -69 49 -16 c56 -18 52
-22 71 73 9 43 19 66 29 68 22 4 66 -52 79 -101 6 -23 26 -68 45 -100 23 -39
28 -54 16 -47 -28 16 -47 33 -65 60 -9 13 -17 19 -17 12 0 -20 71 -92 112
-113 52 -26 50 -43 -4 -35 -75 11 -139 40 -179 78 -47 46 -58 49 -29 8 26 -36
72 -69 119 -86 34 -11 37 -16 52 -81 9 -37 20 -76 24 -86 17 -40 -91 5 -125
52 -12 18 -24 30 -26 28 -6 -5 39 -101 56 -121 22 -28 4 -78 -49 -130 -56 -55
-64 -49 -44 37 8 33 12 64 11 69 -2 6 -23 -16 -48 -48 -24 -33 -45 -61 -47
-64 -2 -2 -8 1 -12 9 -5 8 -10 -1 -14 -26 -4 -21 -20 -54 -36 -73 l-30 -35 10
40 c13 51 24 423 13 412 -5 -5 -11 -66 -14 -135 l-5 -127 -50 -27 c-27 -15
-99 -44 -160 -64 -101 -34 -122 -37 -250 -41 -163 -6 -232 7 -349 62 -134 64
-165 107 -145 209 5 28 12 105 14 171 l4 120 41 9 c22 5 43 7 46 4 2 -3 -1
-26 -8 -52 -21 -78 19 -195 76 -222 32 -16 36 -16 60 0 48 31 61 63 61 148 0
43 2 74 5 70 3 -4 18 -24 33 -44 16 -21 37 -42 48 -48 28 -16 62 26 96 116 15
41 30 74 33 74 6 0 33 -60 32 -70 0 -3 -4 -14 -8 -25 -7 -19 -6 -19 12 -4 16
13 68 39 78 39 2 0 6 -41 8 -91 l3 -91 44 -39 c25 -22 54 -39 67 -39 34 0 91
40 105 72 13 32 16 124 5 191 l-7 47 39 0 c22 0 44 -6 50 -13 6 -7 15 -46 21
-87 l10 -75 -5 95 c-6 100 -11 131 -44 295 -24 120 -24 119 -3 76 10 -20 30
-39 51 -48z m-785 -25 c-47 -46 -63 -46 -39 0 20 39 56 66 70 52 7 -7 -3 -24
-31 -52z m42 -75 c3 -27 9 -58 12 -70 8 -35 -16 -28 -32 10 l-14 32 -1 -27 c0
-21 -5 -28 -20 -28 -19 0 -24 10 -20 39 2 18 51 91 60 91 4 0 11 -21 15 -47z
m525 -1 c27 -23 41 -43 36 -50 -12 -20 -53 -14 -69 11 l-16 22 0 -27 c-1 -18
-6 -28 -16 -28 -8 0 -15 5 -15 11 0 23 23 99 30 99 4 0 27 -17 50 -38z m-931
-564 c21 -103 22 -102 -29 -115 -25 -6 -75 -12 -111 -12 l-66 -1 91 94 c50 51
93 94 96 95 3 0 11 -27 19 -61z m1075 -214 c12 -30 6 -93 -10 -108 -21 -22
-29 -20 -53 11 -31 39 -36 70 -16 93 22 24 70 26 79 4z m-581 -34 c12 -9 37
-25 55 -34 55 -28 35 -96 -28 -96 -16 0 -32 -4 -35 -10 -3 -5 -24 -10 -46 -10
-33 0 -41 4 -49 25 -6 15 -17 25 -29 25 -39 0 -68 79 -40 107 18 18 146 13
172 -7z m867 -34 c0 -17 -28 -41 -37 -32 -10 9 16 58 27 51 6 -3 10 -12 10
-19z m-54 -31 c21 -28 18 -114 -3 -123 -22 -9 -159 -9 -168 0 -7 7 17 94 35
128 11 20 18 22 67 18 39 -3 60 -11 69 -23z m-1311 -27 c22 -27 26 -39 22 -71
-7 -52 -14 -57 -79 -64 -141 -14 -216 114 -86 147 24 6 48 13 53 15 34 12 65
3 90 -27z"/>
<path d="M815 650 c-7 -12 2 -30 16 -30 12 0 12 27 0 35 -5 3 -12 1 -16 -5z"/>
<path d="M1010 460 c-42 -36 -57 -37 -104 -5 -47 32 -66 32 -37 1 30 -32 75
-50 105 -42 27 7 86 53 86 67 0 15 -13 9 -50 -21z"/>
</g>
</svg>
