<?xml version="1.0" standalone="no"?>
<!DOCTYPE svg PUBLIC "-//W3C//DTD SVG 20010904//EN"
 "http://www.w3.org/TR/2001/REC-SVG-20010904/DTD/svg10.dtd">
<svg version="1.0" xmlns="http://www.w3.org/2000/svg"
 width="512.000000pt" height="512.000000pt" viewBox="0 0 512.000000 512.000000"
 preserveAspectRatio="xMidYMid meet">

<g transform="translate(0.000000,512.000000) scale(0.100000,-0.100000)"
fill="##e65ccc" stroke="#e65ccc">
<path d="M750 4826 c-3 -3 29 -42 71 -87 73 -78 82 -92 155 -256 42 -96 78
-172 81 -170 2 2 -30 79 -71 171 -73 164 -79 174 -197 309 -19 21 -36 36 -39
33z"/>
<path d="M2800 4733 c-62 -10 -250 -63 -295 -83 l-49 -21 43 -25 c51 -28 64
-28 20 1 -16 11 -29 23 -29 26 0 8 195 67 265 80 33 6 92 15 130 19 l70 7 -65
0 c-36 0 -76 -2 -90 -4z"/>
<path d="M3128 4733 c6 -2 18 -2 25 0 6 3 1 5 -13 5 -14 0 -19 -2 -12 -5z"/>
<path d="M732 4679 c-2 -60 -9 -42 168 -429 29 -63 59 -130 67 -149 8 -18 16
-31 19 -29 2 3 -51 124 -118 269 -102 222 -123 274 -128 329 l-7 65 -1 -56z"/>
<path d="M3025 4635 c-38 -12 -37 -13 35 -8 70 5 81 3 164 -31 99 -41 129 -43
39 -3 -57 25 -166 58 -188 56 -5 -1 -28 -7 -50 -14z"/>
<path d="M3595 4605 c11 -9 29 -21 40 -26 l20 -10 -20 16 c-11 9 -29 21 -40
26 l-20 10 20 -16z"/>
<path d="M2872 4559 c-29 -12 -51 -23 -48 -26 3 -3 23 2 46 11 22 9 44 15 48
15 4 -1 16 -1 27 0 17 1 18 3 5 11 -19 12 -15 13 -78 -11z"/>
<path d="M2966 4555 c-3 -8 -2 -14 2 -13 17 3 43 -16 56 -42 l14 -29 -52 19
c-28 10 -69 21 -91 24 -31 5 -23 0 35 -21 41 -16 90 -36 107 -46 39 -21 68
-61 57 -79 -4 -7 -3 -9 1 -5 18 16 91 -165 129 -318 42 -169 64 -408 51 -560
-6 -78 -8 -85 -28 -85 -22 0 -66 32 -141 100 -50 45 -159 171 -153 176 2 3 65
22 138 44 157 45 135 54 -26 10 -60 -16 -115 -30 -122 -30 -22 0 -56 62 -64
119 -6 48 -7 42 -6 -42 l2 -99 -30 -14 -30 -14 32 5 c32 4 32 4 43 -53 6 -31
16 -73 21 -92 5 -19 9 -39 9 -45 0 -25 -124 139 -164 218 -11 20 -21 35 -24
33 -2 -3 15 -41 38 -85 42 -80 136 -189 151 -174 5 5 1 52 -8 107 -14 84 -14
99 -2 107 10 6 19 1 33 -19 10 -15 67 -74 126 -132 l107 -105 -133 3 c-103 3
-262 -8 -313 -22 -11 -3 -14 62 -15 332 -1 280 -2 288 -13 190 -13 -116 -15
-299 -4 -433 7 -84 6 -91 -13 -108 l-21 -18 21 6 c18 5 22 0 27 -27 3 -18 9
-42 13 -53 20 -50 -250 200 -273 253 -7 17 -15 32 -18 32 -6 0 5 -56 21 -105
l14 -40 -26 30 c-66 78 -114 224 -114 348 0 165 80 397 173 504 27 32 28 34 6
18 -14 -10 -41 -39 -60 -65 -18 -25 -37 -47 -40 -50 -20 -17 -118 -323 -140
-437 -6 -35 -15 -63 -18 -63 -4 0 -17 7 -30 16 -21 15 -23 21 -16 80 3 34 13
86 20 115 8 29 13 55 11 57 -7 6 -36 -92 -42 -143 -4 -27 -10 -55 -13 -62 -4
-8 -34 5 -94 42 -48 30 -87 52 -87 50 0 -2 41 -33 90 -69 l90 -66 0 -112 c0
-62 3 -123 6 -135 l6 -21 -79 24 c-43 14 -85 29 -93 33 -23 12 -51 117 -58
216 -4 58 -8 79 -12 60 -10 -55 8 -190 34 -256 14 -34 26 -76 26 -93 1 -17 7
-44 15 -61 14 -30 14 -30 8 15 -3 25 -6 50 -7 55 0 6 13 11 30 13 l31 3 1 -96
c1 -124 16 -191 45 -199 50 -13 63 -7 85 42 13 26 28 67 35 92 10 32 18 45 31
44 16 -2 16 -1 -1 19 -10 11 -30 32 -45 46 -23 21 -29 37 -33 86 -3 42 -2 52
4 35 5 -14 16 -38 25 -55 9 -16 16 -35 16 -42 0 -6 4 -14 8 -17 5 -3 6 14 2
37 -5 42 12 238 28 312 l9 40 7 -55 c12 -89 35 -170 66 -229 28 -55 114 -161
130 -161 5 0 -2 28 -16 63 l-24 62 58 -62 c54 -59 221 -197 228 -190 2 2 -1
19 -6 38 -6 18 -10 48 -10 65 0 30 3 32 46 39 25 3 48 5 50 2 3 -2 0 -24 -5
-48 -15 -64 -12 -174 7 -248 l17 -65 50 -13 c28 -7 82 -17 121 -24 l71 -11 53
56 c29 31 55 54 58 52 2 -3 -9 -34 -26 -71 -17 -36 -28 -65 -24 -65 4 0 48 38
97 85 49 47 90 83 92 81 15 -15 -135 -426 -156 -426 -3 0 -15 14 -26 30 -18
27 -45 41 -45 23 0 -5 -14 -23 -31 -40 -39 -43 -25 -43 18 -1 l34 33 23 -30
24 -30 -35 -55 c-19 -30 -68 -89 -109 -130 -41 -42 -74 -78 -74 -82 0 -3 37 3
83 13 102 23 107 23 107 2 0 -22 28 -68 69 -111 17 -18 31 -42 31 -52 0 -19
-2 -19 -45 2 l-46 22 -22 -27 -22 -28 -39 27 c-44 30 -52 28 -131 -37 l-47
-38 -59 49 c-55 46 -69 55 -69 47 0 -2 29 -29 65 -61 l65 -57 44 38 c58 51 94
70 110 58 7 -6 26 -19 41 -30 l28 -19 22 28 23 29 35 -22 c40 -24 50 -56 43
-141 -2 -36 -1 -43 3 -20 l7 35 22 -42 c12 -23 48 -71 80 -105 l59 -63 -19
-40 c-27 -57 -19 -165 16 -235 14 -29 26 -53 26 -55 0 -2 -16 -13 -36 -26 -40
-24 -74 -73 -74 -104 0 -13 7 -6 19 20 19 42 72 81 97 71 10 -4 13 -1 9 7 -4
6 3 1 14 -12 12 -12 18 -28 14 -34 -4 -6 -1 -7 7 -2 10 6 12 1 8 -19 -4 -20
-2 -24 8 -16 9 8 14 6 19 -9 3 -12 10 -21 15 -21 8 0 15 -15 22 -45 4 -17 31
-44 39 -39 5 2 5 12 2 22 -6 18 -86 140 -148 227 -65 92 -81 210 -36 266 l18
22 84 -55 c46 -30 102 -67 124 -81 107 -68 118 -108 60 -217 -37 -68 -45 -97
-19 -64 14 17 15 17 10 1 -4 -11 -2 -16 5 -12 6 4 8 13 6 20 -3 6 5 24 18 39
13 15 27 42 31 59 6 30 27 83 60 151 24 51 7 40 -22 -14 -17 -32 -30 -46 -35
-39 -9 15 82 128 96 121 6 -3 7 -2 3 2 -3 4 5 24 18 43 13 20 24 41 24 47 1 6
10 0 22 -14 16 -19 19 -20 12 -5 -4 11 -9 56 -10 100 0 51 -7 94 -18 117 -25
57 -29 46 -5 -14 14 -36 18 -63 14 -87 -15 -78 -108 -217 -127 -189 -7 9 -8 7
-4 -7 3 -11 2 -26 -3 -33 -5 -9 -10 0 -15 28 -4 23 -14 56 -22 72 -20 40 -24
58 -31 155 -6 79 -5 84 32 162 21 45 42 81 46 81 4 0 17 -16 29 -35 29 -47 35
-44 10 5 -11 21 -20 58 -20 80 l0 41 -42 -78 c-76 -141 -87 -167 -94 -213 -6
-40 -5 -43 7 -27 13 16 14 13 16 -32 l1 -50 -25 27 -24 27 25 -41 c32 -54 87
-219 79 -240 -5 -13 -9 -12 -30 10 -13 14 -63 49 -111 77 -166 98 -252 171
-311 264 -27 43 -31 57 -31 122 l0 74 58 -37 c31 -21 84 -53 116 -72 32 -19
86 -58 120 -86 80 -68 92 -75 77 -47 -19 35 -132 122 -256 196 -147 88 -196
135 -219 213 -5 14 -3 22 4 22 20 0 176 76 225 110 52 36 65 35 37 -1 -28 -35
-54 -89 -44 -89 25 0 203 74 265 110 38 22 71 39 73 37 2 -2 -13 -25 -32 -53
-20 -27 -42 -62 -50 -77 -15 -28 -15 -28 8 -16 13 7 50 30 83 51 37 25 61 35
63 28 3 -7 10 -4 18 9 20 28 126 84 134 70 9 -13 26 28 45 111 23 101 19 108
-24 44 -49 -72 -121 -147 -209 -217 -93 -74 -96 -75 -57 -15 20 29 33 58 31
65 -3 6 0 14 7 17 7 3 1 3 -13 0 -14 -4 -61 -25 -105 -47 -93 -46 -155 -70
-155 -58 0 5 7 15 16 22 24 20 87 115 121 184 40 80 100 240 108 290 4 26 -8
4 -34 -63 -71 -183 -137 -309 -200 -382 l-29 -35 30 63 c16 34 27 68 25 75 -2
7 -10 0 -17 -15 -15 -32 -98 -92 -195 -141 -63 -31 -250 -97 -276 -97 -6 0 21
34 60 76 76 81 120 152 178 285 36 85 93 276 93 316 0 13 25 50 59 88 32 36
73 94 91 128 l32 62 -7 -55 c-11 -88 -34 -177 -60 -235 -13 -30 -21 -55 -18
-55 3 0 31 22 62 48 31 27 72 59 91 72 71 48 155 166 181 252 23 76 37 148 29
148 -5 0 -11 -15 -15 -32 -25 -123 -99 -252 -197 -343 -39 -36 -81 -71 -92
-77 -16 -9 -18 -8 -12 8 18 45 56 211 67 291 15 115 6 409 -15 478 l-15 50 7
-80 c4 -44 7 -152 7 -240 l0 -160 -49 -91 c-26 -50 -66 -111 -87 -135 l-39
-44 25 46 c35 65 74 182 80 243 5 47 4 45 -18 -29 -13 -44 -33 -101 -45 -127
-12 -26 -22 -49 -22 -52 0 -17 -96 -151 -145 -202 -31 -32 -55 -54 -53 -49 21
56 71 141 110 188 53 64 58 90 27 123 l-20 21 25 -4 c36 -7 33 13 -4 26 l-30
10 0 183 c-1 389 -76 674 -241 913 -53 78 -84 103 -93 80z m-52 -867 c-9 -14
-24 2 -24 25 1 21 1 21 15 3 8 -10 12 -23 9 -28z m-665 -47 c0 -25 -4 -64 -8
-86 l-7 -40 -12 40 c-7 22 -15 69 -19 104 l-6 64 26 -18 c23 -15 27 -24 26
-64z m-12 -287 c-9 -9 -28 6 -21 18 4 6 10 6 17 -1 6 -6 8 -13 4 -17z m-37
-64 l25 -19 -23 -46 c-16 -34 -27 -45 -38 -41 -9 3 -21 6 -29 6 -17 0 -32 110
-15 120 16 10 52 1 80 -20z m997 -6 c8 -21 -13 -42 -28 -27 -13 13 -5 43 11
43 6 0 13 -7 17 -16z m-67 -20 c0 -8 -5 -12 -10 -9 -6 4 -8 11 -5 16 9 14 15
11 15 -7z m-35 -98 c25 -21 52 -50 58 -63 9 -21 7 -27 -19 -49 -62 -52 -78
-56 -161 -43 -47 7 -83 19 -94 30 -22 22 -54 128 -43 139 18 17 82 29 145 27
61 -2 71 -6 114 -41z m873 -461 c-10 -29 -24 -45 -60 -66 l-47 -28 56 69 c31
38 58 68 60 66 2 -2 -2 -20 -9 -41z"/>
<path d="M3695 4538 c59 -48 258 -248 284 -285 l22 -33 -25 -9 c-13 -6 -35
-24 -47 -40 -12 -17 -27 -27 -32 -24 -6 3 -7 1 -3 -6 4 -6 -2 -24 -13 -40 -12
-16 -21 -34 -21 -40 0 -21 -15 -11 -45 30 -16 23 -45 53 -62 66 -18 14 -30 30
-26 37 3 6 3 8 -2 4 -4 -4 -15 -2 -23 4 -27 23 -38 17 -34 -21 l3 -36 -19 35
c-10 19 -26 47 -36 63 -10 15 -14 27 -10 27 5 0 2 6 -7 13 -8 7 -27 30 -42 51
-32 48 -137 156 -192 199 -23 18 -11 3 30 -38 169 -168 233 -280 430 -750 37
-88 79 -182 92 -210 l25 -50 -58 55 c-36 35 -49 44 -36 25 25 -36 110 -120
116 -114 2 2 -16 51 -39 109 -23 58 -41 107 -38 110 5 5 36 -34 124 -154 62
-86 92 -110 95 -76 1 8 2 32 3 54 l1 39 76 -7 c74 -7 76 -6 71 13 -3 12 -1 21
4 21 5 0 11 -12 15 -27 24 -107 52 -202 48 -162 -3 26 -21 107 -39 180 -18 74
-30 139 -28 146 3 6 35 26 73 45 38 18 69 36 69 40 1 4 -25 9 -56 13 -130 14
-123 9 -169 120 -55 137 -108 235 -178 330 -69 94 -220 246 -291 293 l-50 33
40 -33z m364 -408 c47 -82 73 -137 111 -237 l28 -73 -37 0 c-33 0 -41 5 -71
48 -30 42 -34 56 -38 126 -2 46 -14 109 -28 148 -13 38 -19 66 -14 63 4 -3 27
-37 49 -75z m-190 -400 l0 -25 -15 28 c-8 15 -12 32 -8 38 9 16 24 -10 23 -41z"/>
<path d="M2475 4513 c-50 -34 -35 -39 41 -14 39 14 47 19 24 15 -33 -5 -34 -4
-16 11 35 27 -6 17 -49 -12z"/>
<path d="M2170 4469 l-35 -30 38 26 c33 24 43 35 34 35 -1 0 -18 -14 -37 -31z"/>
<path d="M1955 4448 c-3 -7 -9 -57 -14 -111 -4 -55 -14 -105 -22 -115 -8 -10
4 2 26 28 22 25 61 67 87 94 l47 49 -52 33 c-58 37 -66 40 -72 22z"/>
<path d="M2104 4418 l-19 -23 23 19 c21 18 27 26 19 26 -2 0 -12 -10 -23 -22z"/>
<path d="M1060 4298 c0 -6 208 -473 247 -553 13 -27 22 -41 19 -30 -5 22 -252
574 -261 583 -3 3 -5 3 -5 0z"/>
<path d="M2066 4215 c-9 -14 -21 -23 -25 -20 -5 2 -8 -3 -7 -13 0 -9 -4 -16
-10 -15 -6 1 -11 -4 -11 -10 0 -7 -12 -32 -28 -57 -69 -110 -135 -303 -135
-398 0 -21 -3 -42 -7 -46 -7 -7 -41 86 -42 117 -2 34 -19 16 -31 -33 -7 -27
-15 -50 -18 -50 -4 0 -6 24 -5 52 l3 53 -25 -74 c-42 -123 -45 -194 -5 -146
19 23 32 19 87 -32 36 -34 54 -61 63 -93 6 -25 25 -73 42 -107 26 -54 29 -71
27 -145 -5 -247 9 -404 41 -455 9 -16 10 -15 5 5 -8 29 15 30 40 2 24 -26 84
-64 91 -57 3 3 -15 19 -40 36 -32 23 -44 36 -40 49 5 13 4 14 -4 3 -8 -12 -15
-9 -36 15 -14 16 -28 43 -30 59 -13 80 -14 105 -5 105 6 0 5 8 -1 21 -6 11 -9
25 -7 32 2 7 10 -1 18 -18 25 -58 98 -152 165 -213 l67 -62 -32 0 c-39 0 -48
-20 -25 -55 17 -25 16 -27 -12 -56 l-29 -30 35 -29 c19 -16 37 -26 40 -24 2 3
-9 16 -25 29 l-30 23 24 26 c21 22 23 29 13 51 -18 39 -16 42 31 48 52 7 106
-21 156 -83 18 -23 36 -39 39 -36 3 3 -3 15 -12 25 -10 11 -19 27 -20 36 -1 9
-29 32 -62 52 -143 86 -248 195 -306 319 -28 59 -31 77 -34 179 -3 102 -7 119
-33 172 -16 32 -35 85 -42 118 -17 80 -15 233 5 324 29 133 71 222 194 409 8
12 12 22 9 22 -2 0 -12 -11 -21 -25z"/>
<path d="M1867 4153 c-33 -52 -63 -113 -71 -143 -4 -14 9 7 28 45 19 39 44 85
56 103 12 17 19 32 16 32 -3 0 -16 -17 -29 -37z"/>
<path d="M990 4057 c0 -12 42 -98 47 -93 2 2 -7 26 -21 53 -14 26 -25 45 -26
40z"/>
<path d="M1761 3900 c-6 -28 -11 -63 -10 -78 0 -15 7 7 14 48 16 85 13 107 -4
30z"/>
<path d="M1051 3925 c0 -5 8 -26 19 -45 11 -19 19 -30 19 -25 0 6 -8 26 -19
45 -11 19 -19 31 -19 25z"/>
<path d="M1101 3815 c0 -5 8 -26 19 -45 11 -19 19 -30 19 -25 0 6 -8 26 -19
45 -11 19 -19 31 -19 25z"/>
<path d="M1141 3725 c0 -5 11 -30 24 -55 13 -25 24 -40 24 -35 0 6 -11 30 -24
55 -13 25 -24 41 -24 35z"/>
<path d="M1330 3687 c0 -2 43 -100 96 -218 53 -117 109 -243 124 -279 24 -56
68 -156 142 -319 14 -30 18 -54 13 -80 -9 -54 -14 -58 -64 -48 l-43 9 -56 119
c-30 65 -57 117 -59 115 -3 -2 18 -53 46 -113 28 -60 51 -115 51 -122 0 -13
49 -101 56 -101 3 0 0 8 -5 18 -7 13 -6 23 2 31 9 10 8 11 -4 6 -10 -4 -19 0
-22 8 -4 12 5 14 45 13 l51 -1 13 49 c13 49 12 51 -32 143 -24 51 -44 96 -44
99 0 3 -13 34 -29 68 -45 95 -161 354 -191 426 -54 128 -90 198 -90 177z"/>
<path d="M1200 3597 c0 -7 25 -64 92 -207 22 -47 47 -100 55 -119 8 -18 16
-31 19 -29 4 4 -151 346 -161 357 -3 2 -5 1 -5 -2z"/>
<path d="M1986 3441 c-12 -18 -17 -117 -8 -141 8 -20 11 -7 13 63 2 48 3 87 2
87 -1 0 -4 -4 -7 -9z"/>
<path d="M2748 3423 c6 -2 18 -2 25 0 6 3 1 5 -13 5 -14 0 -19 -2 -12 -5z"/>
<path d="M1692 3347 c-53 -53 -74 -91 -26 -46 27 25 88 99 82 99 -2 0 -27 -24
-56 -53z"/>
<path d="M1805 3351 c-3 -6 -10 -9 -15 -6 -10 6 -25 -14 -16 -22 3 -4 16 2 28
13 21 19 21 19 14 -6 -3 -14 -9 -52 -12 -85 -8 -91 -11 -99 -41 -111 -15 -7
-37 -15 -48 -20 -18 -7 -17 -8 8 -12 15 -2 27 -9 27 -15 0 -12 13 -37 127
-259 28 -54 48 -98 44 -98 -3 0 2 -5 12 -11 9 -5 17 -13 17 -17 0 -15 -58 -32
-130 -38 -41 -4 -80 -11 -87 -16 -7 -6 -10 -28 -6 -64 5 -50 4 -54 -15 -54
-20 0 -20 0 3 -42 13 -24 27 -65 31 -93 4 -27 12 -66 19 -84 l12 -35 11 46
c17 67 65 105 126 98 17 -2 35 15 36 32 0 11 -42 48 -73 64 -27 14 -29 14 -59
-18 -17 -18 -38 -49 -46 -68 l-16 -35 -7 40 c-11 58 -11 193 1 200 5 3 48 11
95 17 47 7 85 14 85 18 0 10 48 4 63 -9 12 -9 16 -9 20 1 3 8 9 2 16 -14 6
-16 15 -28 20 -28 6 0 1 16 -10 35 -24 40 -42 55 -33 28 3 -10 -15 5 -41 32
-54 59 -108 164 -130 255 -22 92 -30 253 -16 319 11 52 3 88 -14 62z m-8 -243
c0 -7 3 -39 7 -70 4 -32 5 -58 3 -58 -7 0 -37 96 -37 119 0 12 6 21 13 21 8 0
14 -6 14 -12z m94 -629 c14 -27 2 -42 -28 -34 -18 4 -23 3 -17 -7 4 -7 3 -10
-1 -5 -12 11 -14 50 -3 64 12 15 36 6 49 -18z m44 -29 c3 -5 1 -10 -4 -10 -6
0 -11 5 -11 10 0 6 2 10 4 10 3 0 8 -4 11 -10z m-125 -25 c0 -34 -37 -94 -45
-73 -7 16 25 98 37 98 5 0 8 -11 8 -25z"/>
<path d="M4150 3304 c-1 -142 -52 -375 -114 -521 -20 -46 -34 -83 -32 -83 21
0 176 204 164 216 -3 2 -26 -27 -53 -66 -27 -38 -49 -70 -50 -70 -1 0 11 37
26 83 44 129 70 278 70 390 0 55 -3 102 -6 105 -3 3 -5 -21 -5 -54z"/>
<path d="M1713 3185 c-29 -45 -53 -85 -53 -89 0 -3 7 -6 16 -6 9 0 14 6 11 13
-2 6 6 26 18 42 25 34 68 115 63 120 -2 1 -27 -35 -55 -80z"/>
<path d="M1970 3261 c0 -5 5 -13 10 -16 6 -3 10 -2 10 4 0 5 -4 13 -10 16 -5
3 -10 2 -10 -4z"/>
<path d="M1374 3220 c7 -27 99 -220 103 -217 2 2 -22 55 -52 118 -31 63 -54
107 -51 99z"/>
<path d="M4280 3160 c0 -19 3 -21 12 -12 9 9 9 15 0 24 -9 9 -12 7 -12 -12z"/>
<path d="M4373 3087 c32 -31 43 -30 32 4 -5 16 -9 18 -15 8 -7 -11 -12 -11
-27 1 -11 8 -6 2 10 -13z"/>
<path d="M2343 3025 c-59 -27 -68 -78 -28 -162 13 -29 27 -53 30 -53 3 0 -4
18 -15 41 -25 47 -18 63 40 87 35 15 203 26 195 13 -2 -4 14 -18 35 -31 23
-14 44 -37 50 -54 14 -41 23 -26 15 24 -7 41 -8 42 -110 92 -112 54 -164 65
-212 43z m62 -15 c3 -5 1 -10 -4 -10 -6 0 -11 5 -11 10 0 6 2 10 4 10 3 0 8
-4 11 -10z"/>
<path d="M4197 2998 c-2 -13 -8 -32 -12 -42 -6 -13 -5 -17 2 -13 6 4 14 1 16
-5 3 -7 6 8 6 35 1 51 -4 61 -12 25z"/>
<path d="M4260 3004 c0 -8 -10 -38 -22 -66 -18 -42 -23 -47 -29 -32 -6 16 -8
14 -8 -8 -2 -60 36 -13 64 78 7 24 9 44 4 44 -5 0 -9 -7 -9 -16z"/>
<path d="M1750 2772 c6 -13 14 -21 18 -18 3 4 -2 14 -12 24 -18 16 -18 16 -6
-6z"/>
<path d="M2641 2786 c-2 -19 43 -146 52 -146 9 0 3 24 -19 77 -7 18 -9 35 -4
38 10 6 78 -8 139 -30 55 -19 64 -19 26 2 -36 20 -121 43 -157 43 -14 0 -29 6
-31 13 -3 6 -6 8 -6 3z"/>
<path d="M2910 2740 c0 -30 4 -50 11 -50 7 0 10 14 7 35 -2 19 0 35 5 35 6 0
31 -16 56 -36 43 -33 42 -32 -8 15 -30 28 -58 51 -63 51 -4 0 -8 -22 -8 -50z"/>
<path d="M2392 2746 c36 -34 41 -36 100 -35 l63 2 -62 7 c-44 5 -73 15 -100
34 l-38 28 37 -36z"/>
<path d="M2580 2735 c-14 -8 -20 -14 -14 -15 5 0 19 7 30 15 24 18 16 19 -16
0z"/>
<path d="M1780 2726 c0 -2 8 -10 18 -17 15 -13 16 -12 3 4 -13 16 -21 21 -21
13z"/>
<path d="M1723 2699 c-23 -8 -49 -46 -39 -56 3 -4 15 6 27 20 16 21 26 26 45
21 28 -7 32 1 7 14 -10 6 -28 6 -40 1z"/>
<path d="M1640 2681 c0 -6 4 -13 10 -16 6 -3 7 1 4 9 -7 18 -14 21 -14 7z"/>
<path d="M2470 2653 c0 -5 24 -7 52 -5 95 5 104 9 26 11 -43 0 -78 -2 -78 -6z"/>
<path d="M2360 2645 c0 -4 68 -37 115 -55 44 -17 28 -30 -36 -30 -59 0 -61 -1
-55 -22 18 -61 19 -88 3 -88 -8 0 -28 -11 -44 -24 -49 -41 -68 -41 -93 -1 -17
27 -28 35 -51 35 -17 0 -28 4 -25 8 2 4 2 13 -2 19 -4 7 -14 1 -27 -16 -15
-20 -15 -23 -2 -12 15 12 17 11 17 -8 0 -17 4 -20 29 -15 27 6 32 2 50 -35 24
-45 24 -45 51 -31 16 9 22 5 35 -21 21 -39 14 -45 -33 -31 -20 6 -46 9 -57 6
-15 -4 -30 7 -60 42 -22 27 -43 55 -47 63 -6 14 -7 14 -7 0 -1 -9 18 -37 40
-63 40 -45 41 -48 23 -62 -17 -13 -17 -13 9 -4 40 14 79 12 121 -5 35 -15 37
-15 46 7 6 17 9 19 9 6 1 -16 8 -17 64 -11 102 11 100 12 148 -47 25 -30 52
-56 60 -57 8 -1 34 22 59 50 25 28 39 47 31 42 -7 -4 -29 -25 -48 -46 -42 -47
-54 -43 -103 31 l-35 52 -77 -5 c-62 -4 -76 -2 -71 9 2 7 -7 29 -22 48 -30 40
-28 48 16 66 32 14 33 18 13 88 -6 21 -4 22 55 22 33 0 61 2 61 5 0 17 -35 73
-40 65 -4 -7 -23 -4 -54 10 -47 20 -66 24 -66 15z m4 -280 c19 -30 20 -35 3
-35 -11 0 -37 39 -37 55 0 14 20 2 34 -20z"/>
<path d="M1640 2587 c-14 -12 -39 -32 -55 -45 -17 -13 -23 -20 -15 -16 8 4 33
21 55 38 22 16 42 31 44 33 2 2 2 5 0 7 -2 2 -15 -5 -29 -17z"/>
<path d="M1971 2566 c7 -15 15 -23 17 -16 3 7 -3 19 -13 28 -15 16 -16 15 -4
-12z"/>
<path d="M1972 2510 c-18 -29 -15 -38 4 -12 9 13 14 25 12 27 -2 2 -9 -5 -16
-15z"/>
<path d="M1519 2493 c-13 -16 -12 -17 4 -4 9 7 17 15 17 17 0 8 -8 3 -21 -13z"/>
<path d="M3522 2361 c18 -25 57 -90 86 -145 29 -56 50 -87 47 -71 -10 46 -80
168 -126 216 l-41 44 34 -44z"/>
<path d="M3811 2374 c0 -11 3 -14 6 -6 3 7 2 16 -1 19 -3 4 -6 -2 -5 -13z"/>
<path d="M1908 2350 c-26 -17 -54 -43 -64 -58 -15 -23 -12 -22 23 10 54 48 70
56 129 63 36 5 54 3 69 -9 19 -14 18 -15 -15 -10 -67 11 -172 -55 -198 -123
-5 -15 -13 -36 -16 -46 -8 -23 -26 -12 -27 16 0 21 -1 21 -8 2 -8 -19 -9 -18
-14 5 -4 16 -5 13 -3 -10 2 -19 6 -43 10 -52 7 -15 0 -16 -67 -11 -55 4 -88 1
-129 -12 -40 -12 -61 -14 -75 -7 -15 8 -19 7 -20 -6 -1 -9 -7 -38 -14 -64 -11
-44 -10 -51 15 -99 15 -29 23 -55 18 -58 -5 -3 -30 -24 -56 -45 -33 -28 -62
-42 -94 -47 -62 -10 -122 -27 -99 -28 20 -1 22 -11 5 -31 -7 -8 3 0 22 18 50
45 70 43 57 -5 -18 -72 23 -163 98 -215 63 -44 97 -46 135 -9 23 21 43 31 65
31 28 0 34 -5 54 -48 l23 -49 51 8 c77 13 137 48 174 102 17 25 33 52 35 58 3
8 14 4 31 -11 39 -34 35 -76 -18 -233 -44 -131 -69 -260 -56 -285 5 -9 13 1
24 28 13 34 24 44 72 65 30 14 57 25 59 25 2 0 -1 -21 -8 -47 -11 -42 -18 -51
-57 -71 -39 -20 -36 -23 7 -6 15 6 15 4 1 -23 -17 -32 -32 -46 -61 -57 -15 -5
-17 -3 -12 16 17 59 14 77 -4 28 -11 -30 -19 -59 -16 -65 3 -9 150 -51 166
-48 3 1 23 4 45 8 l40 6 -38 -21 c-36 -20 -39 -20 -95 -5 -31 9 -75 21 -97 26
-22 6 -48 15 -59 20 -14 8 -17 7 -14 -3 3 -7 30 -20 60 -28 41 -11 69 -28 107
-63 58 -55 120 -86 170 -87 63 0 155 -31 198 -66 23 -19 60 -62 82 -96 33 -50
41 -72 41 -109 0 -59 -26 -84 -156 -150 -113 -57 -90 -57 31 0 93 44 226 141
273 200 43 53 90 155 111 239 15 58 21 68 48 79 l32 12 15 -47 c14 -40 22 -50
52 -61 19 -7 38 -11 41 -8 2 3 -5 8 -17 12 -30 10 -60 45 -60 72 0 31 25 29
53 -4 12 -15 36 -42 53 -60 17 -18 26 -34 20 -36 -6 -2 4 -7 21 -11 81 -18
215 58 229 130 7 36 35 60 59 50 10 -3 12 0 8 11 -4 10 -2 14 4 10 6 -4 16
-30 22 -58 27 -125 -53 -208 -210 -217 -90 -5 -141 13 -209 74 -47 42 -41 17
7 -28 47 -45 110 -68 189 -68 84 0 126 12 177 52 21 17 40 28 41 27 18 -20 36
-74 31 -92 -4 -15 -3 -18 3 -9 5 8 18 12 28 11 12 -2 35 13 60 38 22 23 54 45
70 48 58 13 58 13 39 41 -16 24 -15 28 19 107 38 90 56 149 56 186 0 25 4 25
-102 4 -42 -8 -34 9 17 36 77 41 122 87 161 166 32 65 36 80 30 122 l-6 48 66
65 c36 36 72 79 80 97 23 52 33 116 25 153 -6 30 -8 24 -13 -42 -4 -63 -10
-85 -36 -125 -32 -50 -115 -119 -187 -155 -22 -11 -48 -27 -57 -35 -9 -8 -22
-12 -29 -7 -7 4 -10 3 -6 -2 8 -14 -100 -117 -114 -108 -7 4 -9 3 -5 -4 3 -5
3 -12 -2 -14 -4 -1 -22 -26 -39 -54 -32 -53 -46 -99 -45 -149 l1 -30 -14 26
c-36 68 -78 191 -91 269 l-14 85 5 -73 4 -73 -45 61 c-24 33 -46 60 -50 60 -6
0 -10 7 59 -98 31 -45 61 -99 68 -120 6 -20 20 -55 31 -77 l19 -40 -48 50
c-68 71 -140 128 -152 120 -13 -7 -31 -71 -31 -110 0 -16 -4 -25 -8 -20 -4 6
-16 17 -27 25 -14 10 -12 5 6 -15 19 -22 26 -43 28 -75 3 -67 28 -148 51 -160
11 -6 20 -7 20 -2 0 5 12 14 27 21 25 11 25 11 12 -6 -41 -51 -53 -62 -62 -56
-6 3 -7 1 -3 -5 11 -19 -43 -34 -103 -29 -47 3 -58 8 -82 38 -64 77 -70 81
-124 77 -27 -3 -58 -8 -68 -12 -18 -9 -19 0 0 67 8 31 -24 18 -61 -25 -33 -38
-36 -40 -36 -17 0 74 55 158 134 204 55 32 138 42 194 22 51 -18 56 -12 7 9
-80 33 -207 4 -268 -62 -30 -32 -31 -31 -47 65 -14 77 -75 234 -136 351 -63
119 -199 319 -297 435 -170 204 -167 199 -167 257 0 36 -3 48 -10 38 -7 -12
-12 -12 -29 4 -12 11 -21 23 -21 29 0 5 -12 18 -26 29 -19 16 -22 23 -13 29 7
4 17 5 21 3 4 -3 8 -1 8 5 0 18 -57 41 -103 41 -32 0 -56 -8 -89 -30z m185
-79 c61 -64 69 -81 37 -81 -25 0 -100 -32 -100 -43 0 -5 -11 -23 -24 -40 -14
-18 -28 -44 -31 -60 -10 -39 -30 -48 -22 -9 14 68 35 101 87 133 60 37 60 52
1 18 -49 -27 -69 -55 -92 -128 l-16 -55 -25 40 c-63 100 -62 100 -50 143 7 22
24 53 37 70 26 30 98 71 125 71 9 0 41 -27 73 -59z m-78 -362 c9 -16 14 -33
11 -38 -3 -4 5 -13 19 -19 21 -10 23 -14 14 -44 -5 -18 -9 -45 -9 -60 0 -16
-5 -28 -10 -28 -20 0 -36 58 -30 107 4 36 1 56 -12 78 -10 17 -18 34 -18 38 0
15 20 -4 35 -34z m305 -84 c0 -25 -3 -45 -7 -45 -4 0 -19 12 -35 27 l-28 26
28 18 c39 25 42 24 42 -26z m-184 -39 c17 -14 18 -16 3 -28 -9 -7 -31 -33 -48
-57 l-31 -44 0 65 c0 35 3 68 7 71 11 12 48 8 69 -7z m187 -125 c-5 -37 -3
-41 38 -71 24 -17 56 -51 71 -74 23 -37 91 -186 85 -186 -1 0 -47 44 -102 98
-102 100 -201 163 -302 193 -24 7 -43 15 -43 19 0 14 161 56 227 59 31 1 31 0
26 -38z m170 -34 c42 -16 76 -32 74 -34 -10 -9 -227 57 -227 69 0 14 68 -2
153 -35z m-56 -19 c28 -10 57 -25 64 -34 37 -45 -65 -22 -121 27 -49 44 -44
45 57 7z m-302 -18 c4 -6 10 -8 14 -6 4 3 32 -10 62 -29 29 -19 58 -35 63 -35
5 0 7 -2 4 -5 -7 -8 -78 26 -78 37 0 5 -4 6 -10 3 -5 -3 -10 -2 -10 4 0 6 -6
8 -12 6 -7 -3 -24 4 -38 15 -14 11 -20 20 -13 20 6 0 15 -5 18 -10z m-33 -44
c-2 -18 1 -25 7 -21 20 12 11 -29 -25 -113 -22 -52 -38 -108 -42 -149 -7 -62
-9 -65 -40 -79 l-34 -14 7 43 c4 23 24 96 45 162 20 66 43 139 49 163 13 47
38 53 33 8z m456 -37 c59 -23 83 -38 91 -56 7 -14 10 -27 8 -30 -2 -2 -25 6
-51 17 -26 11 -53 20 -60 20 -6 0 -30 18 -51 40 -21 22 -34 40 -28 40 7 0 48
-14 91 -31z m-80 -193 c-9 -6 -54 -30 -100 -51 -77 -36 -86 -44 -102 -83 -10
-23 -16 -48 -13 -55 3 -7 34 -22 68 -32 35 -10 69 -21 74 -24 6 -3 16 -6 22
-6 7 0 13 -4 12 -10 0 -15 -29 -9 -128 26 l-89 31 25 81 c50 164 61 184 106
210 l42 24 50 -50 c43 -43 47 -51 33 -61z m1312 62 c0 -91 -57 -178 -163 -247
-60 -40 -107 -53 -107 -29 0 6 -3 8 -6 5 -4 -4 -2 -12 4 -20 8 -9 2 -18 -24
-36 -19 -13 -37 -21 -40 -18 -12 12 7 77 21 77 8 0 15 -5 15 -12 0 -6 2 -9 5
-7 2 3 0 22 -6 43 -9 32 -8 41 7 57 9 10 14 19 10 19 -4 0 3 14 15 31 17 24
24 28 31 17 8 -10 9 -9 4 4 -3 12 11 28 55 58 32 22 59 38 59 36 0 -2 14 9 31
25 17 16 42 29 56 29 13 0 21 4 18 10 -3 6 -1 10 4 10 7 0 11 -22 11 -52z
m-1530 -74 c0 -29 -35 -116 -51 -124 -10 -6 -18 -14 -18 -18 7 -45 -20 -77
-44 -53 -9 9 -6 17 13 32 16 14 19 19 8 15 -10 -3 -18 0 -19 7 -2 22 -27 -67
-28 -98 -1 -28 4 -32 60 -54 61 -23 63 -23 113 -7 28 10 57 20 64 23 6 2 12 0
12 -5 0 -5 -26 -19 -59 -31 -66 -25 -108 -22 -180 12 l-43 22 6 51 c3 28 15
81 26 118 20 62 24 68 68 90 48 24 72 31 72 20z m200 -22 c0 -27 -161 -124
-168 -102 -6 17 16 36 88 74 69 37 80 41 80 28z m370 -331 c0 -6 -4 -13 -10
-16 -5 -3 -10 1 -10 9 0 9 5 16 10 16 6 0 10 -4 10 -9z m-675 -91 c8 -16 20
-30 27 -33 7 -3 9 -6 3 -6 -15 -1 -108 53 -112 65 -2 6 10 8 32 6 27 -3 39
-11 50 -32z m617 -62 c-8 -8 -9 -4 -5 13 4 13 8 18 11 10 2 -7 -1 -18 -6 -23z"/>
<path d="M3720 1380 c-6 -11 -8 -20 -6 -20 3 0 10 9 16 20 6 11 8 20 6 20 -3
0 -10 -9 -16 -20z"/>
<path d="M3668 2277 c-5 -10 -8 -42 -7 -70 l1 -52 9 45 c11 54 9 106 -3 77z"/>
<path d="M1816 2245 c-9 -26 -7 -32 5 -12 6 10 9 21 6 23 -2 3 -7 -2 -11 -11z"/>
<path d="M2416 2185 c111 -179 186 -336 258 -535 51 -141 56 -153 49 -110 -17
110 -146 413 -229 540 -10 14 0 8 23 -15 103 -104 83 -69 -32 55 -33 36 -70
79 -83 95 -12 17 -6 3 14 -30z"/>
<path d="M1458 2123 c6 -2 18 -2 25 0 6 3 1 5 -13 5 -14 0 -19 -2 -12 -5z"/>
<path d="M751 2066 c-8 -9 -16 -35 -18 -59 -7 -65 23 -101 137 -164 52 -29
105 -65 117 -80 13 -16 23 -23 23 -17 0 21 -53 64 -133 107 -96 51 -137 94
-137 142 0 19 2 35 4 35 2 0 19 -15 38 -34 39 -39 100 -59 155 -50 32 5 41 12
54 44 16 36 18 38 85 47 68 10 68 10 -61 12 -118 2 -173 8 -231 26 -13 4 -25
1 -33 -9z m177 -31 l68 -7 -15 -34 c-15 -31 -19 -33 -64 -34 -56 0 -119 29
-143 65 -23 36 -11 45 40 30 25 -8 76 -17 114 -20z"/>
<path d="M3186 1831 l-48 -196 15 -75 c20 -96 30 -120 57 -145 l22 -20 -22 37
c-54 93 -62 198 -25 339 33 122 57 237 53 248 -2 5 -25 -80 -52 -188z"/>
<path d="M3947 1819 c4 -13 8 -18 11 -10 2 7 -1 18 -6 23 -8 8 -9 4 -5 -13z"/>
<path d="M1130 1735 c-30 -13 -49 -24 -42 -25 7 0 23 5 35 12 12 7 47 18 77
24 47 10 50 12 20 13 -19 0 -60 -11 -90 -24z"/>
<path d="M1019 1718 c7 -10 23 -17 35 -17 20 1 20 2 1 6 -11 3 -27 10 -35 17
-13 10 -13 9 -1 -6z"/>
<path d="M2945 1642 c39 -41 102 -101 140 -134 63 -55 61 -52 -20 28 -135 133
-204 194 -120 106z"/>
<path d="M1219 1683 c-13 -16 -12 -17 4 -4 9 7 17 15 17 17 0 8 -8 3 -21 -13z"/>
<path d="M1164 1638 l-19 -23 23 19 c21 18 27 26 19 26 -2 0 -12 -10 -23 -22z"/>
<path d="M1275 1599 c-33 -21 -27 -26 8 -8 22 12 22 12 -1 -13 -26 -29 -22
-49 16 -90 28 -30 63 -36 81 -15 8 11 5 19 -14 37 -16 15 -23 30 -20 41 4 10
-4 27 -17 42 -23 24 -23 24 -53 6z m56 -42 c-7 -7 -4 -21 10 -43 20 -33 14
-49 -15 -38 -22 9 -39 41 -26 49 7 4 7 13 0 24 -12 24 7 46 27 29 9 -7 11 -14
4 -21z"/>
<path d="M1018 1585 c-3 -3 -25 -10 -49 -15 l-44 -9 41 2 c40 2 41 1 33 -21
-5 -13 -9 -39 -9 -58 0 -34 0 -34 -47 -34 -62 0 -158 28 -179 51 -25 28 -6 42
64 50 l57 6 -48 2 c-43 1 -107 -20 -107 -36 0 -3 13 -18 29 -34 37 -34 87 -49
172 -49 l66 0 6 51 c4 28 13 62 22 75 13 21 8 34 -7 19z"/>
<path d="M1198 1533 c-29 -34 -32 -83 -5 -83 6 0 20 -8 31 -17 21 -18 21 -18
3 4 -11 12 -16 27 -11 34 5 9 2 10 -9 6 -20 -7 -22 4 -5 21 16 16 28 15 28 -1
0 -7 9 -18 21 -25 14 -9 19 -20 16 -33 -5 -20 7 -26 18 -8 4 6 -2 20 -12 32
-11 12 -26 37 -33 55 -14 37 -21 39 -42 15z m22 -3 c0 -5 -5 -10 -11 -10 -5 0
-7 5 -4 10 3 6 8 10 11 10 2 0 4 -4 4 -10z"/>
<path d="M3380 1492 c0 -5 7 -9 15 -9 8 0 12 4 9 9 -3 4 -9 8 -15 8 -5 0 -9
-4 -9 -8z"/>
<path d="M730 1457 c-1 -19 42 -87 69 -110 34 -28 94 -51 114 -44 7 3 4 6 -6
6 -49 2 -128 64 -160 126 -9 17 -16 26 -17 22z"/>
<path d="M1495 1440 c-13 -6 -15 -9 -5 -9 8 0 22 4 30 9 18 12 2 12 -25 0z"/>
<path d="M1740 1437 c0 -28 186 -325 197 -314 3 3 -24 48 -60 99 -35 51 -81
122 -101 158 -19 36 -36 61 -36 57z"/>
<path d="M1372 1403 c-24 -8 -41 -17 -39 -19 2 -2 28 5 58 15 30 11 47 20 39
19 -8 0 -34 -6 -58 -15z"/>
<path d="M1267 1365 c-21 -8 -62 -33 -90 -55 -28 -23 -58 -39 -67 -37 -8 3
-24 8 -35 12 -13 4 -12 1 5 -9 36 -22 42 -20 96 22 27 22 70 47 97 57 26 10
47 19 47 21 0 6 -13 3 -53 -11z"/>
<path d="M983 1293 c15 -2 37 -2 50 0 12 2 0 4 -28 4 -27 0 -38 -2 -22 -4z"/>
<path d="M2000 1135 c-7 -9 -11 -17 -9 -20 3 -2 10 5 17 15 14 24 10 26 -8 5z"/>
<path d="M1932 1045 c-17 -37 -14 -45 4 -12 9 16 14 31 11 33 -2 2 -9 -7 -15
-21z"/>
<path d="M3369 563 l-24 -28 28 24 c15 14 27 26 27 28 0 8 -8 1 -31 -24z"/>
<path d="M3325 520 c-11 -18 -176 -96 -260 -123 -80 -26 -246 -69 -320 -82
-22 -4 -123 -11 -225 -15 l-185 -7 155 -1 c230 -3 450 39 679 129 65 26 181
93 181 105 0 8 -19 3 -25 -6z"/>
<path d="M2255 310 c-3 -5 -1 -10 4 -10 6 0 11 5 11 10 0 6 -2 10 -4 10 -3 0
-8 -4 -11 -10z"/>
</g>
</svg>
